<?xml version="1.0" encoding="utf-8" standalone="no"?>
<!DOCTYPE svg PUBLIC "-//W3C//DTD SVG 1.1//EN"
  "http://www.w3.org/Graphics/SVG/1.1/DTD/svg11.dtd">
<!-- Created with matplotlib (http://matplotlib.org/) -->
<svg height="576pt" version="1.1" viewBox="0 0 720 576" width="720pt" xmlns="http://www.w3.org/2000/svg" xmlns:xlink="http://www.w3.org/1999/xlink">
 <defs>
  <style type="text/css">
*{stroke-linecap:butt;stroke-linejoin:round;}
  </style>
 </defs>
 <g id="figure_1">
  <g id="patch_1">
   <path d="M 0 576 
L 720 576 
L 720 0 
L 0 0 
z
" style="fill:#ffffff;"/>
  </g>
  <g id="axes_1">
   <g id="patch_2">
    <path d="M 90 504 
L 648 504 
L 648 69.12 
L 90 69.12 
z
" style="fill:#ffffff;"/>
   </g>
   <g id="matplotlib.axis_1">
    <g id="xtick_1">
     <g id="line2d_1">
      <defs>
       <path d="M 0 0 
L 0 3.5 
" id="mea680151fe" style="stroke:#000000;stroke-width:0.8;"/>
      </defs>
      <g>
       <use style="stroke:#000000;stroke-width:0.8;" x="110.239669" xlink:href="#mea680151fe" y="504"/>
      </g>
     </g>
     <g id="text_1">
      <!-- 0 -->
      <defs>
       <path d="M 31.78125 66.40625 
Q 24.171875 66.40625 20.328125 58.90625 
Q 16.5 51.421875 16.5 36.375 
Q 16.5 21.390625 20.328125 13.890625 
Q 24.171875 6.390625 31.78125 6.390625 
Q 39.453125 6.390625 43.28125 13.890625 
Q 47.125 21.390625 47.125 36.375 
Q 47.125 51.421875 43.28125 58.90625 
Q 39.453125 66.40625 31.78125 66.40625 
M 31.78125 74.21875 
Q 44.046875 74.21875 50.515625 64.515625 
Q 56.984375 54.828125 56.984375 36.375 
Q 56.984375 17.96875 50.515625 8.265625 
Q 44.046875 -1.421875 31.78125 -1.421875 
Q 19.53125 -1.421875 13.0625 8.265625 
Q 6.59375 17.96875 6.59375 36.375 
Q 6.59375 54.828125 13.0625 64.515625 
Q 19.53125 74.21875 31.78125 74.21875 
" id="DejaVuSans-30"/>
      </defs>
      <g transform="translate(102.604669 535.73625)scale(0.24 -0.24)">
       <use xlink:href="#DejaVuSans-30"/>
      </g>
     </g>
    </g>
    <g id="xtick_2">
     <g id="line2d_2">
      <g>
       <use style="stroke:#000000;stroke-width:0.8;" x="212.719008" xlink:href="#mea680151fe" y="504"/>
      </g>
     </g>
     <g id="text_2">
      <!-- 20 -->
      <defs>
       <path d="M 19.1875 8.296875 
L 53.609375 8.296875 
L 53.609375 0 
L 7.328125 0 
L 7.328125 8.296875 
Q 12.9375 14.109375 22.625 23.890625 
Q 32.328125 33.6875 34.8125 36.53125 
Q 39.546875 41.84375 41.421875 45.53125 
Q 43.3125 49.21875 43.3125 52.78125 
Q 43.3125 58.59375 39.234375 62.25 
Q 35.15625 65.921875 28.609375 65.921875 
Q 23.96875 65.921875 18.8125 64.3125 
Q 13.671875 62.703125 7.8125 59.421875 
L 7.8125 69.390625 
Q 13.765625 71.78125 18.9375 73 
Q 24.125 74.21875 28.421875 74.21875 
Q 39.75 74.21875 46.484375 68.546875 
Q 53.21875 62.890625 53.21875 53.421875 
Q 53.21875 48.921875 51.53125 44.890625 
Q 49.859375 40.875 45.40625 35.40625 
Q 44.1875 33.984375 37.640625 27.21875 
Q 31.109375 20.453125 19.1875 8.296875 
" id="DejaVuSans-32"/>
      </defs>
      <g transform="translate(197.449008 535.73625)scale(0.24 -0.24)">
       <use xlink:href="#DejaVuSans-32"/>
       <use x="63.623047" xlink:href="#DejaVuSans-30"/>
      </g>
     </g>
    </g>
    <g id="xtick_3">
     <g id="line2d_3">
      <g>
       <use style="stroke:#000000;stroke-width:0.8;" x="315.198347" xlink:href="#mea680151fe" y="504"/>
      </g>
     </g>
     <g id="text_3">
      <!-- 40 -->
      <defs>
       <path d="M 37.796875 64.3125 
L 12.890625 25.390625 
L 37.796875 25.390625 
z
M 35.203125 72.90625 
L 47.609375 72.90625 
L 47.609375 25.390625 
L 58.015625 25.390625 
L 58.015625 17.1875 
L 47.609375 17.1875 
L 47.609375 0 
L 37.796875 0 
L 37.796875 17.1875 
L 4.890625 17.1875 
L 4.890625 26.703125 
z
" id="DejaVuSans-34"/>
      </defs>
      <g transform="translate(299.928347 535.73625)scale(0.24 -0.24)">
       <use xlink:href="#DejaVuSans-34"/>
       <use x="63.623047" xlink:href="#DejaVuSans-30"/>
      </g>
     </g>
    </g>
    <g id="xtick_4">
     <g id="line2d_4">
      <g>
       <use style="stroke:#000000;stroke-width:0.8;" x="417.677686" xlink:href="#mea680151fe" y="504"/>
      </g>
     </g>
     <g id="text_4">
      <!-- 60 -->
      <defs>
       <path d="M 33.015625 40.375 
Q 26.375 40.375 22.484375 35.828125 
Q 18.609375 31.296875 18.609375 23.390625 
Q 18.609375 15.53125 22.484375 10.953125 
Q 26.375 6.390625 33.015625 6.390625 
Q 39.65625 6.390625 43.53125 10.953125 
Q 47.40625 15.53125 47.40625 23.390625 
Q 47.40625 31.296875 43.53125 35.828125 
Q 39.65625 40.375 33.015625 40.375 
M 52.59375 71.296875 
L 52.59375 62.3125 
Q 48.875 64.0625 45.09375 64.984375 
Q 41.3125 65.921875 37.59375 65.921875 
Q 27.828125 65.921875 22.671875 59.328125 
Q 17.53125 52.734375 16.796875 39.40625 
Q 19.671875 43.65625 24.015625 45.921875 
Q 28.375 48.1875 33.59375 48.1875 
Q 44.578125 48.1875 50.953125 41.515625 
Q 57.328125 34.859375 57.328125 23.390625 
Q 57.328125 12.15625 50.6875 5.359375 
Q 44.046875 -1.421875 33.015625 -1.421875 
Q 20.359375 -1.421875 13.671875 8.265625 
Q 6.984375 17.96875 6.984375 36.375 
Q 6.984375 53.65625 15.1875 63.9375 
Q 23.390625 74.21875 37.203125 74.21875 
Q 40.921875 74.21875 44.703125 73.484375 
Q 48.484375 72.75 52.59375 71.296875 
" id="DejaVuSans-36"/>
      </defs>
      <g transform="translate(402.407686 535.73625)scale(0.24 -0.24)">
       <use xlink:href="#DejaVuSans-36"/>
       <use x="63.623047" xlink:href="#DejaVuSans-30"/>
      </g>
     </g>
    </g>
    <g id="xtick_5">
     <g id="line2d_5">
      <g>
       <use style="stroke:#000000;stroke-width:0.8;" x="520.157025" xlink:href="#mea680151fe" y="504"/>
      </g>
     </g>
     <g id="text_5">
      <!-- 80 -->
      <defs>
       <path d="M 31.78125 34.625 
Q 24.75 34.625 20.71875 30.859375 
Q 16.703125 27.09375 16.703125 20.515625 
Q 16.703125 13.921875 20.71875 10.15625 
Q 24.75 6.390625 31.78125 6.390625 
Q 38.8125 6.390625 42.859375 10.171875 
Q 46.921875 13.96875 46.921875 20.515625 
Q 46.921875 27.09375 42.890625 30.859375 
Q 38.875 34.625 31.78125 34.625 
M 21.921875 38.8125 
Q 15.578125 40.375 12.03125 44.71875 
Q 8.5 49.078125 8.5 55.328125 
Q 8.5 64.0625 14.71875 69.140625 
Q 20.953125 74.21875 31.78125 74.21875 
Q 42.671875 74.21875 48.875 69.140625 
Q 55.078125 64.0625 55.078125 55.328125 
Q 55.078125 49.078125 51.53125 44.71875 
Q 48 40.375 41.703125 38.8125 
Q 48.828125 37.15625 52.796875 32.3125 
Q 56.78125 27.484375 56.78125 20.515625 
Q 56.78125 9.90625 50.3125 4.234375 
Q 43.84375 -1.421875 31.78125 -1.421875 
Q 19.734375 -1.421875 13.25 4.234375 
Q 6.78125 9.90625 6.78125 20.515625 
Q 6.78125 27.484375 10.78125 32.3125 
Q 14.796875 37.15625 21.921875 38.8125 
M 18.3125 54.390625 
Q 18.3125 48.734375 21.84375 45.5625 
Q 25.390625 42.390625 31.78125 42.390625 
Q 38.140625 42.390625 41.71875 45.5625 
Q 45.3125 48.734375 45.3125 54.390625 
Q 45.3125 60.0625 41.71875 63.234375 
Q 38.140625 66.40625 31.78125 66.40625 
Q 25.390625 66.40625 21.84375 63.234375 
Q 18.3125 60.0625 18.3125 54.390625 
" id="DejaVuSans-38"/>
      </defs>
      <g transform="translate(504.887025 535.73625)scale(0.24 -0.24)">
       <use xlink:href="#DejaVuSans-38"/>
       <use x="63.623047" xlink:href="#DejaVuSans-30"/>
      </g>
     </g>
    </g>
    <g id="xtick_6">
     <g id="line2d_6">
      <g>
       <use style="stroke:#000000;stroke-width:0.8;" x="622.636364" xlink:href="#mea680151fe" y="504"/>
      </g>
     </g>
     <g id="text_6">
      <!-- 100 -->
      <defs>
       <path d="M 12.40625 8.296875 
L 28.515625 8.296875 
L 28.515625 63.921875 
L 10.984375 60.40625 
L 10.984375 69.390625 
L 28.421875 72.90625 
L 38.28125 72.90625 
L 38.28125 8.296875 
L 54.390625 8.296875 
L 54.390625 0 
L 12.40625 0 
z
" id="DejaVuSans-31"/>
      </defs>
      <g transform="translate(599.731364 535.73625)scale(0.24 -0.24)">
       <use xlink:href="#DejaVuSans-31"/>
       <use x="63.623047" xlink:href="#DejaVuSans-30"/>
       <use x="127.246094" xlink:href="#DejaVuSans-30"/>
      </g>
     </g>
    </g>
    <g id="text_7">
     <!-- bin number (100 ms bins) -->
     <defs>
      <path d="M 48.6875 27.296875 
Q 48.6875 37.203125 44.609375 42.84375 
Q 40.53125 48.484375 33.40625 48.484375 
Q 26.265625 48.484375 22.1875 42.84375 
Q 18.109375 37.203125 18.109375 27.296875 
Q 18.109375 17.390625 22.1875 11.75 
Q 26.265625 6.109375 33.40625 6.109375 
Q 40.53125 6.109375 44.609375 11.75 
Q 48.6875 17.390625 48.6875 27.296875 
M 18.109375 46.390625 
Q 20.953125 51.265625 25.265625 53.625 
Q 29.59375 56 35.59375 56 
Q 45.5625 56 51.78125 48.09375 
Q 58.015625 40.1875 58.015625 27.296875 
Q 58.015625 14.40625 51.78125 6.484375 
Q 45.5625 -1.421875 35.59375 -1.421875 
Q 29.59375 -1.421875 25.265625 0.953125 
Q 20.953125 3.328125 18.109375 8.203125 
L 18.109375 0 
L 9.078125 0 
L 9.078125 75.984375 
L 18.109375 75.984375 
z
" id="DejaVuSans-62"/>
      <path d="M 9.421875 54.6875 
L 18.40625 54.6875 
L 18.40625 0 
L 9.421875 0 
z
M 9.421875 75.984375 
L 18.40625 75.984375 
L 18.40625 64.59375 
L 9.421875 64.59375 
z
" id="DejaVuSans-69"/>
      <path d="M 54.890625 33.015625 
L 54.890625 0 
L 45.90625 0 
L 45.90625 32.71875 
Q 45.90625 40.484375 42.875 44.328125 
Q 39.84375 48.1875 33.796875 48.1875 
Q 26.515625 48.1875 22.3125 43.546875 
Q 18.109375 38.921875 18.109375 30.90625 
L 18.109375 0 
L 9.078125 0 
L 9.078125 54.6875 
L 18.109375 54.6875 
L 18.109375 46.1875 
Q 21.34375 51.125 25.703125 53.5625 
Q 30.078125 56 35.796875 56 
Q 45.21875 56 50.046875 50.171875 
Q 54.890625 44.34375 54.890625 33.015625 
" id="DejaVuSans-6e"/>
      <path id="DejaVuSans-20"/>
      <path d="M 8.5 21.578125 
L 8.5 54.6875 
L 17.484375 54.6875 
L 17.484375 21.921875 
Q 17.484375 14.15625 20.5 10.265625 
Q 23.53125 6.390625 29.59375 6.390625 
Q 36.859375 6.390625 41.078125 11.03125 
Q 45.3125 15.671875 45.3125 23.6875 
L 45.3125 54.6875 
L 54.296875 54.6875 
L 54.296875 0 
L 45.3125 0 
L 45.3125 8.40625 
Q 42.046875 3.421875 37.71875 1 
Q 33.40625 -1.421875 27.6875 -1.421875 
Q 18.265625 -1.421875 13.375 4.4375 
Q 8.5 10.296875 8.5 21.578125 
M 31.109375 56 
z
" id="DejaVuSans-75"/>
      <path d="M 52 44.1875 
Q 55.375 50.25 60.0625 53.125 
Q 64.75 56 71.09375 56 
Q 79.640625 56 84.28125 50.015625 
Q 88.921875 44.046875 88.921875 33.015625 
L 88.921875 0 
L 79.890625 0 
L 79.890625 32.71875 
Q 79.890625 40.578125 77.09375 44.375 
Q 74.3125 48.1875 68.609375 48.1875 
Q 61.625 48.1875 57.5625 43.546875 
Q 53.515625 38.921875 53.515625 30.90625 
L 53.515625 0 
L 44.484375 0 
L 44.484375 32.71875 
Q 44.484375 40.625 41.703125 44.40625 
Q 38.921875 48.1875 33.109375 48.1875 
Q 26.21875 48.1875 22.15625 43.53125 
Q 18.109375 38.875 18.109375 30.90625 
L 18.109375 0 
L 9.078125 0 
L 9.078125 54.6875 
L 18.109375 54.6875 
L 18.109375 46.1875 
Q 21.1875 51.21875 25.484375 53.609375 
Q 29.78125 56 35.6875 56 
Q 41.65625 56 45.828125 52.96875 
Q 50 49.953125 52 44.1875 
" id="DejaVuSans-6d"/>
      <path d="M 56.203125 29.59375 
L 56.203125 25.203125 
L 14.890625 25.203125 
Q 15.484375 15.921875 20.484375 11.0625 
Q 25.484375 6.203125 34.421875 6.203125 
Q 39.59375 6.203125 44.453125 7.46875 
Q 49.3125 8.734375 54.109375 11.28125 
L 54.109375 2.78125 
Q 49.265625 0.734375 44.1875 -0.34375 
Q 39.109375 -1.421875 33.890625 -1.421875 
Q 20.796875 -1.421875 13.15625 6.1875 
Q 5.515625 13.8125 5.515625 26.8125 
Q 5.515625 40.234375 12.765625 48.109375 
Q 20.015625 56 32.328125 56 
Q 43.359375 56 49.78125 48.890625 
Q 56.203125 41.796875 56.203125 29.59375 
M 47.21875 32.234375 
Q 47.125 39.59375 43.09375 43.984375 
Q 39.0625 48.390625 32.421875 48.390625 
Q 24.90625 48.390625 20.390625 44.140625 
Q 15.875 39.890625 15.1875 32.171875 
z
" id="DejaVuSans-65"/>
      <path d="M 41.109375 46.296875 
Q 39.59375 47.171875 37.8125 47.578125 
Q 36.03125 48 33.890625 48 
Q 26.265625 48 22.1875 43.046875 
Q 18.109375 38.09375 18.109375 28.8125 
L 18.109375 0 
L 9.078125 0 
L 9.078125 54.6875 
L 18.109375 54.6875 
L 18.109375 46.1875 
Q 20.953125 51.171875 25.484375 53.578125 
Q 30.03125 56 36.53125 56 
Q 37.453125 56 38.578125 55.875 
Q 39.703125 55.765625 41.0625 55.515625 
z
" id="DejaVuSans-72"/>
      <path d="M 31 75.875 
Q 24.46875 64.65625 21.28125 53.65625 
Q 18.109375 42.671875 18.109375 31.390625 
Q 18.109375 20.125 21.3125 9.0625 
Q 24.515625 -2 31 -13.1875 
L 23.1875 -13.1875 
Q 15.875 -1.703125 12.234375 9.375 
Q 8.59375 20.453125 8.59375 31.390625 
Q 8.59375 42.28125 12.203125 53.3125 
Q 15.828125 64.359375 23.1875 75.875 
z
" id="DejaVuSans-28"/>
      <path d="M 44.28125 53.078125 
L 44.28125 44.578125 
Q 40.484375 46.53125 36.375 47.5 
Q 32.28125 48.484375 27.875 48.484375 
Q 21.1875 48.484375 17.84375 46.4375 
Q 14.5 44.390625 14.5 40.28125 
Q 14.5 37.15625 16.890625 35.375 
Q 19.28125 33.59375 26.515625 31.984375 
L 29.59375 31.296875 
Q 39.15625 29.25 43.1875 25.515625 
Q 47.21875 21.78125 47.21875 15.09375 
Q 47.21875 7.46875 41.1875 3.015625 
Q 35.15625 -1.421875 24.609375 -1.421875 
Q 20.21875 -1.421875 15.453125 -0.5625 
Q 10.6875 0.296875 5.421875 2 
L 5.421875 11.28125 
Q 10.40625 8.6875 15.234375 7.390625 
Q 20.0625 6.109375 24.8125 6.109375 
Q 31.15625 6.109375 34.5625 8.28125 
Q 37.984375 10.453125 37.984375 14.40625 
Q 37.984375 18.0625 35.515625 20.015625 
Q 33.0625 21.96875 24.703125 23.78125 
L 21.578125 24.515625 
Q 13.234375 26.265625 9.515625 29.90625 
Q 5.8125 33.546875 5.8125 39.890625 
Q 5.8125 47.609375 11.28125 51.796875 
Q 16.75 56 26.8125 56 
Q 31.78125 56 36.171875 55.265625 
Q 40.578125 54.546875 44.28125 53.078125 
" id="DejaVuSans-73"/>
      <path d="M 8.015625 75.875 
L 15.828125 75.875 
Q 23.140625 64.359375 26.78125 53.3125 
Q 30.421875 42.28125 30.421875 31.390625 
Q 30.421875 20.453125 26.78125 9.375 
Q 23.140625 -1.703125 15.828125 -13.1875 
L 8.015625 -13.1875 
Q 14.5 -2 17.703125 9.0625 
Q 20.90625 20.125 20.90625 31.390625 
Q 20.90625 42.671875 17.703125 53.65625 
Q 14.5 64.65625 8.015625 75.875 
" id="DejaVuSans-29"/>
     </defs>
     <g transform="translate(213.3375 562.96375)scale(0.24 -0.24)">
      <use xlink:href="#DejaVuSans-62"/>
      <use x="63.476562" xlink:href="#DejaVuSans-69"/>
      <use x="91.259766" xlink:href="#DejaVuSans-6e"/>
      <use x="154.638672" xlink:href="#DejaVuSans-20"/>
      <use x="186.425781" xlink:href="#DejaVuSans-6e"/>
      <use x="249.804688" xlink:href="#DejaVuSans-75"/>
      <use x="313.183594" xlink:href="#DejaVuSans-6d"/>
      <use x="410.595703" xlink:href="#DejaVuSans-62"/>
      <use x="474.072266" xlink:href="#DejaVuSans-65"/>
      <use x="535.595703" xlink:href="#DejaVuSans-72"/>
      <use x="576.708984" xlink:href="#DejaVuSans-20"/>
      <use x="608.496094" xlink:href="#DejaVuSans-28"/>
      <use x="647.509766" xlink:href="#DejaVuSans-31"/>
      <use x="711.132812" xlink:href="#DejaVuSans-30"/>
      <use x="774.755859" xlink:href="#DejaVuSans-30"/>
      <use x="838.378906" xlink:href="#DejaVuSans-20"/>
      <use x="870.166016" xlink:href="#DejaVuSans-6d"/>
      <use x="967.578125" xlink:href="#DejaVuSans-73"/>
      <use x="1019.677734" xlink:href="#DejaVuSans-20"/>
      <use x="1051.464844" xlink:href="#DejaVuSans-62"/>
      <use x="1114.941406" xlink:href="#DejaVuSans-69"/>
      <use x="1142.724609" xlink:href="#DejaVuSans-6e"/>
      <use x="1206.103516" xlink:href="#DejaVuSans-73"/>
      <use x="1258.203125" xlink:href="#DejaVuSans-29"/>
     </g>
    </g>
   </g>
   <g id="matplotlib.axis_2">
    <g id="ytick_1">
     <g id="line2d_7">
      <defs>
       <path d="M 0 0 
L -3.5 0 
" id="m6b63976da9" style="stroke:#000000;stroke-width:0.8;"/>
      </defs>
      <g>
       <use style="stroke:#000000;stroke-width:0.8;" x="90" xlink:href="#m6b63976da9" y="504"/>
      </g>
     </g>
     <g id="text_8">
      <!-- 0 -->
      <g transform="translate(61.23 513.118125)scale(0.24 -0.24)">
       <use xlink:href="#DejaVuSans-30"/>
      </g>
     </g>
    </g>
    <g id="ytick_2">
     <g id="line2d_8">
      <g>
       <use style="stroke:#000000;stroke-width:0.8;" x="90" xlink:href="#m6b63976da9" y="449.64"/>
      </g>
     </g>
     <g id="text_9">
      <!-- 5 -->
      <defs>
       <path d="M 10.796875 72.90625 
L 49.515625 72.90625 
L 49.515625 64.59375 
L 19.828125 64.59375 
L 19.828125 46.734375 
Q 21.96875 47.46875 24.109375 47.828125 
Q 26.265625 48.1875 28.421875 48.1875 
Q 40.625 48.1875 47.75 41.5 
Q 54.890625 34.8125 54.890625 23.390625 
Q 54.890625 11.625 47.5625 5.09375 
Q 40.234375 -1.421875 26.90625 -1.421875 
Q 22.3125 -1.421875 17.546875 -0.640625 
Q 12.796875 0.140625 7.71875 1.703125 
L 7.71875 11.625 
Q 12.109375 9.234375 16.796875 8.0625 
Q 21.484375 6.890625 26.703125 6.890625 
Q 35.15625 6.890625 40.078125 11.328125 
Q 45.015625 15.765625 45.015625 23.390625 
Q 45.015625 31 40.078125 35.4375 
Q 35.15625 39.890625 26.703125 39.890625 
Q 22.75 39.890625 18.8125 39.015625 
Q 14.890625 38.140625 10.796875 36.28125 
z
" id="DejaVuSans-35"/>
      </defs>
      <g transform="translate(61.23 458.758125)scale(0.24 -0.24)">
       <use xlink:href="#DejaVuSans-35"/>
      </g>
     </g>
    </g>
    <g id="ytick_3">
     <g id="line2d_9">
      <g>
       <use style="stroke:#000000;stroke-width:0.8;" x="90" xlink:href="#m6b63976da9" y="395.28"/>
      </g>
     </g>
     <g id="text_10">
      <!-- 10 -->
      <g transform="translate(45.96 404.398125)scale(0.24 -0.24)">
       <use xlink:href="#DejaVuSans-31"/>
       <use x="63.623047" xlink:href="#DejaVuSans-30"/>
      </g>
     </g>
    </g>
    <g id="ytick_4">
     <g id="line2d_10">
      <g>
       <use style="stroke:#000000;stroke-width:0.8;" x="90" xlink:href="#m6b63976da9" y="340.92"/>
      </g>
     </g>
     <g id="text_11">
      <!-- 15 -->
      <g transform="translate(45.96 350.038125)scale(0.24 -0.24)">
       <use xlink:href="#DejaVuSans-31"/>
       <use x="63.623047" xlink:href="#DejaVuSans-35"/>
      </g>
     </g>
    </g>
    <g id="ytick_5">
     <g id="line2d_11">
      <g>
       <use style="stroke:#000000;stroke-width:0.8;" x="90" xlink:href="#m6b63976da9" y="286.56"/>
      </g>
     </g>
     <g id="text_12">
      <!-- 20 -->
      <g transform="translate(45.96 295.678125)scale(0.24 -0.24)">
       <use xlink:href="#DejaVuSans-32"/>
       <use x="63.623047" xlink:href="#DejaVuSans-30"/>
      </g>
     </g>
    </g>
    <g id="ytick_6">
     <g id="line2d_12">
      <g>
       <use style="stroke:#000000;stroke-width:0.8;" x="90" xlink:href="#m6b63976da9" y="232.2"/>
      </g>
     </g>
     <g id="text_13">
      <!-- 25 -->
      <g transform="translate(45.96 241.318125)scale(0.24 -0.24)">
       <use xlink:href="#DejaVuSans-32"/>
       <use x="63.623047" xlink:href="#DejaVuSans-35"/>
      </g>
     </g>
    </g>
    <g id="ytick_7">
     <g id="line2d_13">
      <g>
       <use style="stroke:#000000;stroke-width:0.8;" x="90" xlink:href="#m6b63976da9" y="177.84"/>
      </g>
     </g>
     <g id="text_14">
      <!-- 30 -->
      <defs>
       <path d="M 40.578125 39.3125 
Q 47.65625 37.796875 51.625 33 
Q 55.609375 28.21875 55.609375 21.1875 
Q 55.609375 10.40625 48.1875 4.484375 
Q 40.765625 -1.421875 27.09375 -1.421875 
Q 22.515625 -1.421875 17.65625 -0.515625 
Q 12.796875 0.390625 7.625 2.203125 
L 7.625 11.71875 
Q 11.71875 9.328125 16.59375 8.109375 
Q 21.484375 6.890625 26.8125 6.890625 
Q 36.078125 6.890625 40.9375 10.546875 
Q 45.796875 14.203125 45.796875 21.1875 
Q 45.796875 27.640625 41.28125 31.265625 
Q 36.765625 34.90625 28.71875 34.90625 
L 20.21875 34.90625 
L 20.21875 43.015625 
L 29.109375 43.015625 
Q 36.375 43.015625 40.234375 45.921875 
Q 44.09375 48.828125 44.09375 54.296875 
Q 44.09375 59.90625 40.109375 62.90625 
Q 36.140625 65.921875 28.71875 65.921875 
Q 24.65625 65.921875 20.015625 65.03125 
Q 15.375 64.15625 9.8125 62.3125 
L 9.8125 71.09375 
Q 15.4375 72.65625 20.34375 73.4375 
Q 25.25 74.21875 29.59375 74.21875 
Q 40.828125 74.21875 47.359375 69.109375 
Q 53.90625 64.015625 53.90625 55.328125 
Q 53.90625 49.265625 50.4375 45.09375 
Q 46.96875 40.921875 40.578125 39.3125 
" id="DejaVuSans-33"/>
      </defs>
      <g transform="translate(45.96 186.958125)scale(0.24 -0.24)">
       <use xlink:href="#DejaVuSans-33"/>
       <use x="63.623047" xlink:href="#DejaVuSans-30"/>
      </g>
     </g>
    </g>
    <g id="ytick_8">
     <g id="line2d_14">
      <g>
       <use style="stroke:#000000;stroke-width:0.8;" x="90" xlink:href="#m6b63976da9" y="123.48"/>
      </g>
     </g>
     <g id="text_15">
      <!-- 35 -->
      <g transform="translate(45.96 132.598125)scale(0.24 -0.24)">
       <use xlink:href="#DejaVuSans-33"/>
       <use x="63.623047" xlink:href="#DejaVuSans-35"/>
      </g>
     </g>
    </g>
    <g id="ytick_9">
     <g id="line2d_15">
      <g>
       <use style="stroke:#000000;stroke-width:0.8;" x="90" xlink:href="#m6b63976da9" y="69.12"/>
      </g>
     </g>
     <g id="text_16">
      <!-- 40 -->
      <g transform="translate(45.96 78.238125)scale(0.24 -0.24)">
       <use xlink:href="#DejaVuSans-34"/>
       <use x="63.623047" xlink:href="#DejaVuSans-30"/>
      </g>
     </g>
    </g>
    <g id="text_17">
     <!-- mean neuronal firing rate (s$^{-1}$) -->
     <defs>
      <path d="M 34.28125 27.484375 
Q 23.390625 27.484375 19.1875 25 
Q 14.984375 22.515625 14.984375 16.5 
Q 14.984375 11.71875 18.140625 8.90625 
Q 21.296875 6.109375 26.703125 6.109375 
Q 34.1875 6.109375 38.703125 11.40625 
Q 43.21875 16.703125 43.21875 25.484375 
L 43.21875 27.484375 
z
M 52.203125 31.203125 
L 52.203125 0 
L 43.21875 0 
L 43.21875 8.296875 
Q 40.140625 3.328125 35.546875 0.953125 
Q 30.953125 -1.421875 24.3125 -1.421875 
Q 15.921875 -1.421875 10.953125 3.296875 
Q 6 8.015625 6 15.921875 
Q 6 25.140625 12.171875 29.828125 
Q 18.359375 34.515625 30.609375 34.515625 
L 43.21875 34.515625 
L 43.21875 35.40625 
Q 43.21875 41.609375 39.140625 45 
Q 35.0625 48.390625 27.6875 48.390625 
Q 23 48.390625 18.546875 47.265625 
Q 14.109375 46.140625 10.015625 43.890625 
L 10.015625 52.203125 
Q 14.9375 54.109375 19.578125 55.046875 
Q 24.21875 56 28.609375 56 
Q 40.484375 56 46.34375 49.84375 
Q 52.203125 43.703125 52.203125 31.203125 
" id="DejaVuSans-61"/>
      <path d="M 30.609375 48.390625 
Q 23.390625 48.390625 19.1875 42.75 
Q 14.984375 37.109375 14.984375 27.296875 
Q 14.984375 17.484375 19.15625 11.84375 
Q 23.34375 6.203125 30.609375 6.203125 
Q 37.796875 6.203125 41.984375 11.859375 
Q 46.1875 17.53125 46.1875 27.296875 
Q 46.1875 37.015625 41.984375 42.703125 
Q 37.796875 48.390625 30.609375 48.390625 
M 30.609375 56 
Q 42.328125 56 49.015625 48.375 
Q 55.71875 40.765625 55.71875 27.296875 
Q 55.71875 13.875 49.015625 6.21875 
Q 42.328125 -1.421875 30.609375 -1.421875 
Q 18.84375 -1.421875 12.171875 6.21875 
Q 5.515625 13.875 5.515625 27.296875 
Q 5.515625 40.765625 12.171875 48.375 
Q 18.84375 56 30.609375 56 
" id="DejaVuSans-6f"/>
      <path d="M 9.421875 75.984375 
L 18.40625 75.984375 
L 18.40625 0 
L 9.421875 0 
z
" id="DejaVuSans-6c"/>
      <path d="M 37.109375 75.984375 
L 37.109375 68.5 
L 28.515625 68.5 
Q 23.6875 68.5 21.796875 66.546875 
Q 19.921875 64.59375 19.921875 59.515625 
L 19.921875 54.6875 
L 34.71875 54.6875 
L 34.71875 47.703125 
L 19.921875 47.703125 
L 19.921875 0 
L 10.890625 0 
L 10.890625 47.703125 
L 2.296875 47.703125 
L 2.296875 54.6875 
L 10.890625 54.6875 
L 10.890625 58.5 
Q 10.890625 67.625 15.140625 71.796875 
Q 19.390625 75.984375 28.609375 75.984375 
z
" id="DejaVuSans-66"/>
      <path d="M 45.40625 27.984375 
Q 45.40625 37.75 41.375 43.109375 
Q 37.359375 48.484375 30.078125 48.484375 
Q 22.859375 48.484375 18.828125 43.109375 
Q 14.796875 37.75 14.796875 27.984375 
Q 14.796875 18.265625 18.828125 12.890625 
Q 22.859375 7.515625 30.078125 7.515625 
Q 37.359375 7.515625 41.375 12.890625 
Q 45.40625 18.265625 45.40625 27.984375 
M 54.390625 6.78125 
Q 54.390625 -7.171875 48.1875 -13.984375 
Q 42 -20.796875 29.203125 -20.796875 
Q 24.46875 -20.796875 20.265625 -20.09375 
Q 16.0625 -19.390625 12.109375 -17.921875 
L 12.109375 -9.1875 
Q 16.0625 -11.328125 19.921875 -12.34375 
Q 23.78125 -13.375 27.78125 -13.375 
Q 36.625 -13.375 41.015625 -8.765625 
Q 45.40625 -4.15625 45.40625 5.171875 
L 45.40625 9.625 
Q 42.625 4.78125 38.28125 2.390625 
Q 33.9375 0 27.875 0 
Q 17.828125 0 11.671875 7.65625 
Q 5.515625 15.328125 5.515625 27.984375 
Q 5.515625 40.671875 11.671875 48.328125 
Q 17.828125 56 27.875 56 
Q 33.9375 56 38.28125 53.609375 
Q 42.625 51.21875 45.40625 46.390625 
L 45.40625 54.6875 
L 54.390625 54.6875 
z
" id="DejaVuSans-67"/>
      <path d="M 18.3125 70.21875 
L 18.3125 54.6875 
L 36.8125 54.6875 
L 36.8125 47.703125 
L 18.3125 47.703125 
L 18.3125 18.015625 
Q 18.3125 11.328125 20.140625 9.421875 
Q 21.96875 7.515625 27.59375 7.515625 
L 36.8125 7.515625 
L 36.8125 0 
L 27.59375 0 
Q 17.1875 0 13.234375 3.875 
Q 9.28125 7.765625 9.28125 18.015625 
L 9.28125 47.703125 
L 2.6875 47.703125 
L 2.6875 54.6875 
L 9.28125 54.6875 
L 9.28125 70.21875 
z
" id="DejaVuSans-74"/>
      <path d="M 10.59375 35.5 
L 73.1875 35.5 
L 73.1875 27.203125 
L 10.59375 27.203125 
z
" id="DejaVuSans-2212"/>
     </defs>
     <g transform="translate(36.92 472.92)rotate(-90)scale(0.24 -0.24)">
      <use transform="translate(0 0.684375)" xlink:href="#DejaVuSans-6d"/>
      <use transform="translate(97.412109 0.684375)" xlink:href="#DejaVuSans-65"/>
      <use transform="translate(158.935547 0.684375)" xlink:href="#DejaVuSans-61"/>
      <use transform="translate(220.214844 0.684375)" xlink:href="#DejaVuSans-6e"/>
      <use transform="translate(283.59375 0.684375)" xlink:href="#DejaVuSans-20"/>
      <use transform="translate(315.380859 0.684375)" xlink:href="#DejaVuSans-6e"/>
      <use transform="translate(378.759766 0.684375)" xlink:href="#DejaVuSans-65"/>
      <use transform="translate(440.283203 0.684375)" xlink:href="#DejaVuSans-75"/>
      <use transform="translate(503.662109 0.684375)" xlink:href="#DejaVuSans-72"/>
      <use transform="translate(544.775391 0.684375)" xlink:href="#DejaVuSans-6f"/>
      <use transform="translate(605.957031 0.684375)" xlink:href="#DejaVuSans-6e"/>
      <use transform="translate(669.335938 0.684375)" xlink:href="#DejaVuSans-61"/>
      <use transform="translate(730.615234 0.684375)" xlink:href="#DejaVuSans-6c"/>
      <use transform="translate(758.398438 0.684375)" xlink:href="#DejaVuSans-20"/>
      <use transform="translate(790.185547 0.684375)" xlink:href="#DejaVuSans-66"/>
      <use transform="translate(825.390625 0.684375)" xlink:href="#DejaVuSans-69"/>
      <use transform="translate(853.173828 0.684375)" xlink:href="#DejaVuSans-72"/>
      <use transform="translate(894.287109 0.684375)" xlink:href="#DejaVuSans-69"/>
      <use transform="translate(922.070312 0.684375)" xlink:href="#DejaVuSans-6e"/>
      <use transform="translate(985.449219 0.684375)" xlink:href="#DejaVuSans-67"/>
      <use transform="translate(1048.925781 0.684375)" xlink:href="#DejaVuSans-20"/>
      <use transform="translate(1080.712891 0.684375)" xlink:href="#DejaVuSans-72"/>
      <use transform="translate(1121.826172 0.684375)" xlink:href="#DejaVuSans-61"/>
      <use transform="translate(1183.105469 0.684375)" xlink:href="#DejaVuSans-74"/>
      <use transform="translate(1222.314453 0.684375)" xlink:href="#DejaVuSans-65"/>
      <use transform="translate(1283.837891 0.684375)" xlink:href="#DejaVuSans-20"/>
      <use transform="translate(1315.625 0.684375)" xlink:href="#DejaVuSans-28"/>
      <use transform="translate(1354.638672 0.684375)" xlink:href="#DejaVuSans-73"/>
      <use transform="translate(1407.695312 38.965625)scale(0.7)" xlink:href="#DejaVuSans-2212"/>
      <use transform="translate(1466.347656 38.965625)scale(0.7)" xlink:href="#DejaVuSans-31"/>
      <use transform="translate(1513.618164 0.684375)" xlink:href="#DejaVuSans-29"/>
     </g>
    </g>
   </g>
   <g id="line2d_16">
    <path clip-path="url(#pf0a4e8d133)" d="M 116.658977 -1 
L 120.487603 145.224 
L 125.61157 264.816 
L 130.735537 308.304 
L 135.859504 286.56 
L 140.983471 243.072 
L 146.107438 253.944 
L 151.231405 286.56 
L 156.355372 221.328 
L 161.479339 330.048 
L 166.603306 286.56 
L 171.727273 319.176 
L 176.85124 286.56 
L 181.975207 243.072 
L 187.099174 297.432 
L 192.22314 264.816 
L 197.347107 286.56 
L 202.471074 243.072 
L 207.595041 199.584 
L 212.719008 362.664 
L 217.842975 308.304 
L 222.966942 330.048 
L 228.090909 221.328 
L 233.214876 340.92 
L 238.338843 395.28 
L 243.46281 253.944 
L 248.586777 297.432 
L 253.710744 286.56 
L 258.834711 253.944 
L 263.958678 199.584 
L 269.082645 340.92 
L 274.206612 330.048 
L 279.330579 166.968 
L 284.454545 340.92 
L 289.578512 253.944 
L 294.702479 286.56 
L 299.826446 297.432 
L 304.950413 308.304 
L 310.07438 221.328 
L 315.198347 264.816 
L 320.322314 330.048 
L 325.446281 286.56 
L 330.570248 243.072 
L 335.694215 319.176 
L 340.818182 264.816 
L 345.942149 275.688 
L 351.066116 210.456 
L 356.190083 406.152 
L 361.31405 210.456 
L 366.438017 319.176 
L 371.561983 232.2 
L 376.68595 253.944 
L 381.809917 264.816 
L 386.933884 210.456 
L 392.057851 297.432 
L 397.181818 308.304 
L 402.305785 286.56 
L 407.429752 340.92 
L 412.553719 156.096 
L 417.677686 264.816 
L 422.801653 319.176 
L 427.92562 286.56 
L 433.049587 232.2 
L 438.173554 319.176 
L 443.297521 286.56 
L 448.421488 232.2 
L 453.545455 275.688 
L 458.669421 286.56 
L 463.793388 275.688 
L 468.917355 264.816 
L 474.041322 297.432 
L 479.165289 308.304 
L 484.289256 253.944 
L 489.413223 253.944 
L 494.53719 308.304 
L 499.661157 275.688 
L 504.785124 275.688 
L 509.909091 275.688 
L 515.033058 319.176 
L 520.157025 264.816 
L 525.280992 264.816 
L 530.404959 319.176 
L 535.528926 286.56 
L 540.652893 275.688 
L 545.77686 286.56 
L 550.900826 253.944 
L 556.024793 275.688 
L 561.14876 297.432 
L 566.272727 297.432 
L 571.396694 177.84 
L 576.520661 319.176 
L 581.644628 243.072 
L 586.768595 286.56 
L 591.892562 253.944 
L 597.016529 319.176 
L 602.140496 275.688 
L 607.264463 243.072 
L 612.38843 275.688 
L 617.512397 384.408 
L 622.636364 210.456 
" style="fill:none;stroke:#bfbf00;stroke-dasharray:8.4,3.6;stroke-dashoffset:0;stroke-width:3;"/>
    <defs>
     <path d="M 0 3 
C 0.795609 3 1.55874 2.683901 2.12132 2.12132 
C 2.683901 1.55874 3 0.795609 3 0 
C 3 -0.795609 2.683901 -1.55874 2.12132 -2.12132 
C 1.55874 -2.683901 0.795609 -3 0 -3 
C -0.795609 -3 -1.55874 -2.683901 -2.12132 -2.12132 
C -2.683901 -1.55874 -3 -0.795609 -3 0 
C -3 0.795609 -2.683901 1.55874 -2.12132 2.12132 
C -1.55874 2.683901 -0.795609 3 0 3 
z
" id="mb3c8f6da5a" style="stroke:#bfbf00;"/>
    </defs>
    <g clip-path="url(#pf0a4e8d133)">
     <use style="fill:#bfbf00;stroke:#bfbf00;" x="116.658977" xlink:href="#mb3c8f6da5a" y="-1"/>
     <use style="fill:#bfbf00;stroke:#bfbf00;" x="120.487603" xlink:href="#mb3c8f6da5a" y="145.224"/>
     <use style="fill:#bfbf00;stroke:#bfbf00;" x="125.61157" xlink:href="#mb3c8f6da5a" y="264.816"/>
     <use style="fill:#bfbf00;stroke:#bfbf00;" x="130.735537" xlink:href="#mb3c8f6da5a" y="308.304"/>
     <use style="fill:#bfbf00;stroke:#bfbf00;" x="135.859504" xlink:href="#mb3c8f6da5a" y="286.56"/>
     <use style="fill:#bfbf00;stroke:#bfbf00;" x="140.983471" xlink:href="#mb3c8f6da5a" y="243.072"/>
     <use style="fill:#bfbf00;stroke:#bfbf00;" x="146.107438" xlink:href="#mb3c8f6da5a" y="253.944"/>
     <use style="fill:#bfbf00;stroke:#bfbf00;" x="151.231405" xlink:href="#mb3c8f6da5a" y="286.56"/>
     <use style="fill:#bfbf00;stroke:#bfbf00;" x="156.355372" xlink:href="#mb3c8f6da5a" y="221.328"/>
     <use style="fill:#bfbf00;stroke:#bfbf00;" x="161.479339" xlink:href="#mb3c8f6da5a" y="330.048"/>
     <use style="fill:#bfbf00;stroke:#bfbf00;" x="166.603306" xlink:href="#mb3c8f6da5a" y="286.56"/>
     <use style="fill:#bfbf00;stroke:#bfbf00;" x="171.727273" xlink:href="#mb3c8f6da5a" y="319.176"/>
     <use style="fill:#bfbf00;stroke:#bfbf00;" x="176.85124" xlink:href="#mb3c8f6da5a" y="286.56"/>
     <use style="fill:#bfbf00;stroke:#bfbf00;" x="181.975207" xlink:href="#mb3c8f6da5a" y="243.072"/>
     <use style="fill:#bfbf00;stroke:#bfbf00;" x="187.099174" xlink:href="#mb3c8f6da5a" y="297.432"/>
     <use style="fill:#bfbf00;stroke:#bfbf00;" x="192.22314" xlink:href="#mb3c8f6da5a" y="264.816"/>
     <use style="fill:#bfbf00;stroke:#bfbf00;" x="197.347107" xlink:href="#mb3c8f6da5a" y="286.56"/>
     <use style="fill:#bfbf00;stroke:#bfbf00;" x="202.471074" xlink:href="#mb3c8f6da5a" y="243.072"/>
     <use style="fill:#bfbf00;stroke:#bfbf00;" x="207.595041" xlink:href="#mb3c8f6da5a" y="199.584"/>
     <use style="fill:#bfbf00;stroke:#bfbf00;" x="212.719008" xlink:href="#mb3c8f6da5a" y="362.664"/>
     <use style="fill:#bfbf00;stroke:#bfbf00;" x="217.842975" xlink:href="#mb3c8f6da5a" y="308.304"/>
     <use style="fill:#bfbf00;stroke:#bfbf00;" x="222.966942" xlink:href="#mb3c8f6da5a" y="330.048"/>
     <use style="fill:#bfbf00;stroke:#bfbf00;" x="228.090909" xlink:href="#mb3c8f6da5a" y="221.328"/>
     <use style="fill:#bfbf00;stroke:#bfbf00;" x="233.214876" xlink:href="#mb3c8f6da5a" y="340.92"/>
     <use style="fill:#bfbf00;stroke:#bfbf00;" x="238.338843" xlink:href="#mb3c8f6da5a" y="395.28"/>
     <use style="fill:#bfbf00;stroke:#bfbf00;" x="243.46281" xlink:href="#mb3c8f6da5a" y="253.944"/>
     <use style="fill:#bfbf00;stroke:#bfbf00;" x="248.586777" xlink:href="#mb3c8f6da5a" y="297.432"/>
     <use style="fill:#bfbf00;stroke:#bfbf00;" x="253.710744" xlink:href="#mb3c8f6da5a" y="286.56"/>
     <use style="fill:#bfbf00;stroke:#bfbf00;" x="258.834711" xlink:href="#mb3c8f6da5a" y="253.944"/>
     <use style="fill:#bfbf00;stroke:#bfbf00;" x="263.958678" xlink:href="#mb3c8f6da5a" y="199.584"/>
     <use style="fill:#bfbf00;stroke:#bfbf00;" x="269.082645" xlink:href="#mb3c8f6da5a" y="340.92"/>
     <use style="fill:#bfbf00;stroke:#bfbf00;" x="274.206612" xlink:href="#mb3c8f6da5a" y="330.048"/>
     <use style="fill:#bfbf00;stroke:#bfbf00;" x="279.330579" xlink:href="#mb3c8f6da5a" y="166.968"/>
     <use style="fill:#bfbf00;stroke:#bfbf00;" x="284.454545" xlink:href="#mb3c8f6da5a" y="340.92"/>
     <use style="fill:#bfbf00;stroke:#bfbf00;" x="289.578512" xlink:href="#mb3c8f6da5a" y="253.944"/>
     <use style="fill:#bfbf00;stroke:#bfbf00;" x="294.702479" xlink:href="#mb3c8f6da5a" y="286.56"/>
     <use style="fill:#bfbf00;stroke:#bfbf00;" x="299.826446" xlink:href="#mb3c8f6da5a" y="297.432"/>
     <use style="fill:#bfbf00;stroke:#bfbf00;" x="304.950413" xlink:href="#mb3c8f6da5a" y="308.304"/>
     <use style="fill:#bfbf00;stroke:#bfbf00;" x="310.07438" xlink:href="#mb3c8f6da5a" y="221.328"/>
     <use style="fill:#bfbf00;stroke:#bfbf00;" x="315.198347" xlink:href="#mb3c8f6da5a" y="264.816"/>
     <use style="fill:#bfbf00;stroke:#bfbf00;" x="320.322314" xlink:href="#mb3c8f6da5a" y="330.048"/>
     <use style="fill:#bfbf00;stroke:#bfbf00;" x="325.446281" xlink:href="#mb3c8f6da5a" y="286.56"/>
     <use style="fill:#bfbf00;stroke:#bfbf00;" x="330.570248" xlink:href="#mb3c8f6da5a" y="243.072"/>
     <use style="fill:#bfbf00;stroke:#bfbf00;" x="335.694215" xlink:href="#mb3c8f6da5a" y="319.176"/>
     <use style="fill:#bfbf00;stroke:#bfbf00;" x="340.818182" xlink:href="#mb3c8f6da5a" y="264.816"/>
     <use style="fill:#bfbf00;stroke:#bfbf00;" x="345.942149" xlink:href="#mb3c8f6da5a" y="275.688"/>
     <use style="fill:#bfbf00;stroke:#bfbf00;" x="351.066116" xlink:href="#mb3c8f6da5a" y="210.456"/>
     <use style="fill:#bfbf00;stroke:#bfbf00;" x="356.190083" xlink:href="#mb3c8f6da5a" y="406.152"/>
     <use style="fill:#bfbf00;stroke:#bfbf00;" x="361.31405" xlink:href="#mb3c8f6da5a" y="210.456"/>
     <use style="fill:#bfbf00;stroke:#bfbf00;" x="366.438017" xlink:href="#mb3c8f6da5a" y="319.176"/>
     <use style="fill:#bfbf00;stroke:#bfbf00;" x="371.561983" xlink:href="#mb3c8f6da5a" y="232.2"/>
     <use style="fill:#bfbf00;stroke:#bfbf00;" x="376.68595" xlink:href="#mb3c8f6da5a" y="253.944"/>
     <use style="fill:#bfbf00;stroke:#bfbf00;" x="381.809917" xlink:href="#mb3c8f6da5a" y="264.816"/>
     <use style="fill:#bfbf00;stroke:#bfbf00;" x="386.933884" xlink:href="#mb3c8f6da5a" y="210.456"/>
     <use style="fill:#bfbf00;stroke:#bfbf00;" x="392.057851" xlink:href="#mb3c8f6da5a" y="297.432"/>
     <use style="fill:#bfbf00;stroke:#bfbf00;" x="397.181818" xlink:href="#mb3c8f6da5a" y="308.304"/>
     <use style="fill:#bfbf00;stroke:#bfbf00;" x="402.305785" xlink:href="#mb3c8f6da5a" y="286.56"/>
     <use style="fill:#bfbf00;stroke:#bfbf00;" x="407.429752" xlink:href="#mb3c8f6da5a" y="340.92"/>
     <use style="fill:#bfbf00;stroke:#bfbf00;" x="412.553719" xlink:href="#mb3c8f6da5a" y="156.096"/>
     <use style="fill:#bfbf00;stroke:#bfbf00;" x="417.677686" xlink:href="#mb3c8f6da5a" y="264.816"/>
     <use style="fill:#bfbf00;stroke:#bfbf00;" x="422.801653" xlink:href="#mb3c8f6da5a" y="319.176"/>
     <use style="fill:#bfbf00;stroke:#bfbf00;" x="427.92562" xlink:href="#mb3c8f6da5a" y="286.56"/>
     <use style="fill:#bfbf00;stroke:#bfbf00;" x="433.049587" xlink:href="#mb3c8f6da5a" y="232.2"/>
     <use style="fill:#bfbf00;stroke:#bfbf00;" x="438.173554" xlink:href="#mb3c8f6da5a" y="319.176"/>
     <use style="fill:#bfbf00;stroke:#bfbf00;" x="443.297521" xlink:href="#mb3c8f6da5a" y="286.56"/>
     <use style="fill:#bfbf00;stroke:#bfbf00;" x="448.421488" xlink:href="#mb3c8f6da5a" y="232.2"/>
     <use style="fill:#bfbf00;stroke:#bfbf00;" x="453.545455" xlink:href="#mb3c8f6da5a" y="275.688"/>
     <use style="fill:#bfbf00;stroke:#bfbf00;" x="458.669421" xlink:href="#mb3c8f6da5a" y="286.56"/>
     <use style="fill:#bfbf00;stroke:#bfbf00;" x="463.793388" xlink:href="#mb3c8f6da5a" y="275.688"/>
     <use style="fill:#bfbf00;stroke:#bfbf00;" x="468.917355" xlink:href="#mb3c8f6da5a" y="264.816"/>
     <use style="fill:#bfbf00;stroke:#bfbf00;" x="474.041322" xlink:href="#mb3c8f6da5a" y="297.432"/>
     <use style="fill:#bfbf00;stroke:#bfbf00;" x="479.165289" xlink:href="#mb3c8f6da5a" y="308.304"/>
     <use style="fill:#bfbf00;stroke:#bfbf00;" x="484.289256" xlink:href="#mb3c8f6da5a" y="253.944"/>
     <use style="fill:#bfbf00;stroke:#bfbf00;" x="489.413223" xlink:href="#mb3c8f6da5a" y="253.944"/>
     <use style="fill:#bfbf00;stroke:#bfbf00;" x="494.53719" xlink:href="#mb3c8f6da5a" y="308.304"/>
     <use style="fill:#bfbf00;stroke:#bfbf00;" x="499.661157" xlink:href="#mb3c8f6da5a" y="275.688"/>
     <use style="fill:#bfbf00;stroke:#bfbf00;" x="504.785124" xlink:href="#mb3c8f6da5a" y="275.688"/>
     <use style="fill:#bfbf00;stroke:#bfbf00;" x="509.909091" xlink:href="#mb3c8f6da5a" y="275.688"/>
     <use style="fill:#bfbf00;stroke:#bfbf00;" x="515.033058" xlink:href="#mb3c8f6da5a" y="319.176"/>
     <use style="fill:#bfbf00;stroke:#bfbf00;" x="520.157025" xlink:href="#mb3c8f6da5a" y="264.816"/>
     <use style="fill:#bfbf00;stroke:#bfbf00;" x="525.280992" xlink:href="#mb3c8f6da5a" y="264.816"/>
     <use style="fill:#bfbf00;stroke:#bfbf00;" x="530.404959" xlink:href="#mb3c8f6da5a" y="319.176"/>
     <use style="fill:#bfbf00;stroke:#bfbf00;" x="535.528926" xlink:href="#mb3c8f6da5a" y="286.56"/>
     <use style="fill:#bfbf00;stroke:#bfbf00;" x="540.652893" xlink:href="#mb3c8f6da5a" y="275.688"/>
     <use style="fill:#bfbf00;stroke:#bfbf00;" x="545.77686" xlink:href="#mb3c8f6da5a" y="286.56"/>
     <use style="fill:#bfbf00;stroke:#bfbf00;" x="550.900826" xlink:href="#mb3c8f6da5a" y="253.944"/>
     <use style="fill:#bfbf00;stroke:#bfbf00;" x="556.024793" xlink:href="#mb3c8f6da5a" y="275.688"/>
     <use style="fill:#bfbf00;stroke:#bfbf00;" x="561.14876" xlink:href="#mb3c8f6da5a" y="297.432"/>
     <use style="fill:#bfbf00;stroke:#bfbf00;" x="566.272727" xlink:href="#mb3c8f6da5a" y="297.432"/>
     <use style="fill:#bfbf00;stroke:#bfbf00;" x="571.396694" xlink:href="#mb3c8f6da5a" y="177.84"/>
     <use style="fill:#bfbf00;stroke:#bfbf00;" x="576.520661" xlink:href="#mb3c8f6da5a" y="319.176"/>
     <use style="fill:#bfbf00;stroke:#bfbf00;" x="581.644628" xlink:href="#mb3c8f6da5a" y="243.072"/>
     <use style="fill:#bfbf00;stroke:#bfbf00;" x="586.768595" xlink:href="#mb3c8f6da5a" y="286.56"/>
     <use style="fill:#bfbf00;stroke:#bfbf00;" x="591.892562" xlink:href="#mb3c8f6da5a" y="253.944"/>
     <use style="fill:#bfbf00;stroke:#bfbf00;" x="597.016529" xlink:href="#mb3c8f6da5a" y="319.176"/>
     <use style="fill:#bfbf00;stroke:#bfbf00;" x="602.140496" xlink:href="#mb3c8f6da5a" y="275.688"/>
     <use style="fill:#bfbf00;stroke:#bfbf00;" x="607.264463" xlink:href="#mb3c8f6da5a" y="243.072"/>
     <use style="fill:#bfbf00;stroke:#bfbf00;" x="612.38843" xlink:href="#mb3c8f6da5a" y="275.688"/>
     <use style="fill:#bfbf00;stroke:#bfbf00;" x="617.512397" xlink:href="#mb3c8f6da5a" y="384.408"/>
     <use style="fill:#bfbf00;stroke:#bfbf00;" x="622.636364" xlink:href="#mb3c8f6da5a" y="210.456"/>
    </g>
   </g>
   <g id="line2d_17">
    <path clip-path="url(#pf0a4e8d133)" d="M 118.965234 -1 
L 120.487603 166.968 
L 125.61157 199.584 
L 130.735537 199.584 
L 135.859504 199.584 
L 140.983471 166.968 
L 146.107438 199.584 
L 151.231405 177.84 
L 156.355372 134.352 
L 161.479339 232.2 
L 166.603306 199.584 
L 171.727273 177.84 
L 176.85124 221.328 
L 181.975207 177.84 
L 187.099174 210.456 
L 192.22314 177.84 
L 197.347107 177.84 
L 202.471074 199.584 
L 207.595041 156.096 
L 212.719008 221.328 
L 217.842975 210.456 
L 222.966942 199.584 
L 228.090909 145.224 
L 233.214876 275.688 
L 238.338843 199.584 
L 243.46281 177.84 
L 248.586777 188.712 
L 253.710744 210.456 
L 258.834711 156.096 
L 263.958678 166.968 
L 269.082645 232.2 
L 274.206612 199.584 
L 279.330579 134.352 
L 284.454545 232.2 
L 289.578512 156.096 
L 294.702479 210.456 
L 299.826446 177.84 
L 304.950413 210.456 
L 310.07438 145.224 
L 315.198347 232.2 
L 320.322314 210.456 
L 325.446281 166.968 
L 330.570248 188.712 
L 335.694215 210.456 
L 340.818182 156.096 
L 345.942149 221.328 
L 351.066116 112.608 
L 356.190083 243.072 
L 361.31405 177.84 
L 366.438017 199.584 
L 371.561983 188.712 
L 376.68595 134.352 
L 381.809917 232.2 
L 386.933884 145.224 
L 392.057851 232.2 
L 397.181818 188.712 
L 402.305785 210.456 
L 407.429752 177.84 
L 412.553719 156.096 
L 417.677686 188.712 
L 422.801653 232.2 
L 427.92562 221.328 
L 433.049587 112.608 
L 438.173554 232.2 
L 443.297521 177.84 
L 448.421488 188.712 
L 453.545455 210.456 
L 458.669421 156.096 
L 463.793388 210.456 
L 468.917355 221.328 
L 474.041322 188.712 
L 479.165289 166.968 
L 484.289256 210.456 
L 489.413223 177.84 
L 494.53719 199.584 
L 499.661157 199.584 
L 504.785124 177.84 
L 509.909091 199.584 
L 515.033058 188.712 
L 520.157025 221.328 
L 525.280992 188.712 
L 530.404959 210.456 
L 535.528926 145.224 
L 540.652893 221.328 
L 545.77686 210.456 
L 550.900826 177.84 
L 556.024793 188.712 
L 561.14876 199.584 
L 566.272727 232.2 
L 571.396694 145.224 
L 576.520661 221.328 
L 581.644628 177.84 
L 586.768595 177.84 
L 591.892562 188.712 
L 597.016529 166.968 
L 602.140496 243.072 
L 607.264463 145.224 
L 612.38843 210.456 
L 617.512397 188.712 
L 622.636364 210.456 
" style="fill:none;stroke:#bf00bf;stroke-dasharray:8.4,3.6;stroke-dashoffset:0;stroke-width:3;"/>
    <defs>
     <path d="M 0 3 
C 0.795609 3 1.55874 2.683901 2.12132 2.12132 
C 2.683901 1.55874 3 0.795609 3 0 
C 3 -0.795609 2.683901 -1.55874 2.12132 -2.12132 
C 1.55874 -2.683901 0.795609 -3 0 -3 
C -0.795609 -3 -1.55874 -2.683901 -2.12132 -2.12132 
C -2.683901 -1.55874 -3 -0.795609 -3 0 
C -3 0.795609 -2.683901 1.55874 -2.12132 2.12132 
C -1.55874 2.683901 -0.795609 3 0 3 
z
" id="m348b10f152" style="stroke:#bf00bf;"/>
    </defs>
    <g clip-path="url(#pf0a4e8d133)">
     <use style="fill:#bf00bf;stroke:#bf00bf;" x="118.965234" xlink:href="#m348b10f152" y="-1"/>
     <use style="fill:#bf00bf;stroke:#bf00bf;" x="120.487603" xlink:href="#m348b10f152" y="166.968"/>
     <use style="fill:#bf00bf;stroke:#bf00bf;" x="125.61157" xlink:href="#m348b10f152" y="199.584"/>
     <use style="fill:#bf00bf;stroke:#bf00bf;" x="130.735537" xlink:href="#m348b10f152" y="199.584"/>
     <use style="fill:#bf00bf;stroke:#bf00bf;" x="135.859504" xlink:href="#m348b10f152" y="199.584"/>
     <use style="fill:#bf00bf;stroke:#bf00bf;" x="140.983471" xlink:href="#m348b10f152" y="166.968"/>
     <use style="fill:#bf00bf;stroke:#bf00bf;" x="146.107438" xlink:href="#m348b10f152" y="199.584"/>
     <use style="fill:#bf00bf;stroke:#bf00bf;" x="151.231405" xlink:href="#m348b10f152" y="177.84"/>
     <use style="fill:#bf00bf;stroke:#bf00bf;" x="156.355372" xlink:href="#m348b10f152" y="134.352"/>
     <use style="fill:#bf00bf;stroke:#bf00bf;" x="161.479339" xlink:href="#m348b10f152" y="232.2"/>
     <use style="fill:#bf00bf;stroke:#bf00bf;" x="166.603306" xlink:href="#m348b10f152" y="199.584"/>
     <use style="fill:#bf00bf;stroke:#bf00bf;" x="171.727273" xlink:href="#m348b10f152" y="177.84"/>
     <use style="fill:#bf00bf;stroke:#bf00bf;" x="176.85124" xlink:href="#m348b10f152" y="221.328"/>
     <use style="fill:#bf00bf;stroke:#bf00bf;" x="181.975207" xlink:href="#m348b10f152" y="177.84"/>
     <use style="fill:#bf00bf;stroke:#bf00bf;" x="187.099174" xlink:href="#m348b10f152" y="210.456"/>
     <use style="fill:#bf00bf;stroke:#bf00bf;" x="192.22314" xlink:href="#m348b10f152" y="177.84"/>
     <use style="fill:#bf00bf;stroke:#bf00bf;" x="197.347107" xlink:href="#m348b10f152" y="177.84"/>
     <use style="fill:#bf00bf;stroke:#bf00bf;" x="202.471074" xlink:href="#m348b10f152" y="199.584"/>
     <use style="fill:#bf00bf;stroke:#bf00bf;" x="207.595041" xlink:href="#m348b10f152" y="156.096"/>
     <use style="fill:#bf00bf;stroke:#bf00bf;" x="212.719008" xlink:href="#m348b10f152" y="221.328"/>
     <use style="fill:#bf00bf;stroke:#bf00bf;" x="217.842975" xlink:href="#m348b10f152" y="210.456"/>
     <use style="fill:#bf00bf;stroke:#bf00bf;" x="222.966942" xlink:href="#m348b10f152" y="199.584"/>
     <use style="fill:#bf00bf;stroke:#bf00bf;" x="228.090909" xlink:href="#m348b10f152" y="145.224"/>
     <use style="fill:#bf00bf;stroke:#bf00bf;" x="233.214876" xlink:href="#m348b10f152" y="275.688"/>
     <use style="fill:#bf00bf;stroke:#bf00bf;" x="238.338843" xlink:href="#m348b10f152" y="199.584"/>
     <use style="fill:#bf00bf;stroke:#bf00bf;" x="243.46281" xlink:href="#m348b10f152" y="177.84"/>
     <use style="fill:#bf00bf;stroke:#bf00bf;" x="248.586777" xlink:href="#m348b10f152" y="188.712"/>
     <use style="fill:#bf00bf;stroke:#bf00bf;" x="253.710744" xlink:href="#m348b10f152" y="210.456"/>
     <use style="fill:#bf00bf;stroke:#bf00bf;" x="258.834711" xlink:href="#m348b10f152" y="156.096"/>
     <use style="fill:#bf00bf;stroke:#bf00bf;" x="263.958678" xlink:href="#m348b10f152" y="166.968"/>
     <use style="fill:#bf00bf;stroke:#bf00bf;" x="269.082645" xlink:href="#m348b10f152" y="232.2"/>
     <use style="fill:#bf00bf;stroke:#bf00bf;" x="274.206612" xlink:href="#m348b10f152" y="199.584"/>
     <use style="fill:#bf00bf;stroke:#bf00bf;" x="279.330579" xlink:href="#m348b10f152" y="134.352"/>
     <use style="fill:#bf00bf;stroke:#bf00bf;" x="284.454545" xlink:href="#m348b10f152" y="232.2"/>
     <use style="fill:#bf00bf;stroke:#bf00bf;" x="289.578512" xlink:href="#m348b10f152" y="156.096"/>
     <use style="fill:#bf00bf;stroke:#bf00bf;" x="294.702479" xlink:href="#m348b10f152" y="210.456"/>
     <use style="fill:#bf00bf;stroke:#bf00bf;" x="299.826446" xlink:href="#m348b10f152" y="177.84"/>
     <use style="fill:#bf00bf;stroke:#bf00bf;" x="304.950413" xlink:href="#m348b10f152" y="210.456"/>
     <use style="fill:#bf00bf;stroke:#bf00bf;" x="310.07438" xlink:href="#m348b10f152" y="145.224"/>
     <use style="fill:#bf00bf;stroke:#bf00bf;" x="315.198347" xlink:href="#m348b10f152" y="232.2"/>
     <use style="fill:#bf00bf;stroke:#bf00bf;" x="320.322314" xlink:href="#m348b10f152" y="210.456"/>
     <use style="fill:#bf00bf;stroke:#bf00bf;" x="325.446281" xlink:href="#m348b10f152" y="166.968"/>
     <use style="fill:#bf00bf;stroke:#bf00bf;" x="330.570248" xlink:href="#m348b10f152" y="188.712"/>
     <use style="fill:#bf00bf;stroke:#bf00bf;" x="335.694215" xlink:href="#m348b10f152" y="210.456"/>
     <use style="fill:#bf00bf;stroke:#bf00bf;" x="340.818182" xlink:href="#m348b10f152" y="156.096"/>
     <use style="fill:#bf00bf;stroke:#bf00bf;" x="345.942149" xlink:href="#m348b10f152" y="221.328"/>
     <use style="fill:#bf00bf;stroke:#bf00bf;" x="351.066116" xlink:href="#m348b10f152" y="112.608"/>
     <use style="fill:#bf00bf;stroke:#bf00bf;" x="356.190083" xlink:href="#m348b10f152" y="243.072"/>
     <use style="fill:#bf00bf;stroke:#bf00bf;" x="361.31405" xlink:href="#m348b10f152" y="177.84"/>
     <use style="fill:#bf00bf;stroke:#bf00bf;" x="366.438017" xlink:href="#m348b10f152" y="199.584"/>
     <use style="fill:#bf00bf;stroke:#bf00bf;" x="371.561983" xlink:href="#m348b10f152" y="188.712"/>
     <use style="fill:#bf00bf;stroke:#bf00bf;" x="376.68595" xlink:href="#m348b10f152" y="134.352"/>
     <use style="fill:#bf00bf;stroke:#bf00bf;" x="381.809917" xlink:href="#m348b10f152" y="232.2"/>
     <use style="fill:#bf00bf;stroke:#bf00bf;" x="386.933884" xlink:href="#m348b10f152" y="145.224"/>
     <use style="fill:#bf00bf;stroke:#bf00bf;" x="392.057851" xlink:href="#m348b10f152" y="232.2"/>
     <use style="fill:#bf00bf;stroke:#bf00bf;" x="397.181818" xlink:href="#m348b10f152" y="188.712"/>
     <use style="fill:#bf00bf;stroke:#bf00bf;" x="402.305785" xlink:href="#m348b10f152" y="210.456"/>
     <use style="fill:#bf00bf;stroke:#bf00bf;" x="407.429752" xlink:href="#m348b10f152" y="177.84"/>
     <use style="fill:#bf00bf;stroke:#bf00bf;" x="412.553719" xlink:href="#m348b10f152" y="156.096"/>
     <use style="fill:#bf00bf;stroke:#bf00bf;" x="417.677686" xlink:href="#m348b10f152" y="188.712"/>
     <use style="fill:#bf00bf;stroke:#bf00bf;" x="422.801653" xlink:href="#m348b10f152" y="232.2"/>
     <use style="fill:#bf00bf;stroke:#bf00bf;" x="427.92562" xlink:href="#m348b10f152" y="221.328"/>
     <use style="fill:#bf00bf;stroke:#bf00bf;" x="433.049587" xlink:href="#m348b10f152" y="112.608"/>
     <use style="fill:#bf00bf;stroke:#bf00bf;" x="438.173554" xlink:href="#m348b10f152" y="232.2"/>
     <use style="fill:#bf00bf;stroke:#bf00bf;" x="443.297521" xlink:href="#m348b10f152" y="177.84"/>
     <use style="fill:#bf00bf;stroke:#bf00bf;" x="448.421488" xlink:href="#m348b10f152" y="188.712"/>
     <use style="fill:#bf00bf;stroke:#bf00bf;" x="453.545455" xlink:href="#m348b10f152" y="210.456"/>
     <use style="fill:#bf00bf;stroke:#bf00bf;" x="458.669421" xlink:href="#m348b10f152" y="156.096"/>
     <use style="fill:#bf00bf;stroke:#bf00bf;" x="463.793388" xlink:href="#m348b10f152" y="210.456"/>
     <use style="fill:#bf00bf;stroke:#bf00bf;" x="468.917355" xlink:href="#m348b10f152" y="221.328"/>
     <use style="fill:#bf00bf;stroke:#bf00bf;" x="474.041322" xlink:href="#m348b10f152" y="188.712"/>
     <use style="fill:#bf00bf;stroke:#bf00bf;" x="479.165289" xlink:href="#m348b10f152" y="166.968"/>
     <use style="fill:#bf00bf;stroke:#bf00bf;" x="484.289256" xlink:href="#m348b10f152" y="210.456"/>
     <use style="fill:#bf00bf;stroke:#bf00bf;" x="489.413223" xlink:href="#m348b10f152" y="177.84"/>
     <use style="fill:#bf00bf;stroke:#bf00bf;" x="494.53719" xlink:href="#m348b10f152" y="199.584"/>
     <use style="fill:#bf00bf;stroke:#bf00bf;" x="499.661157" xlink:href="#m348b10f152" y="199.584"/>
     <use style="fill:#bf00bf;stroke:#bf00bf;" x="504.785124" xlink:href="#m348b10f152" y="177.84"/>
     <use style="fill:#bf00bf;stroke:#bf00bf;" x="509.909091" xlink:href="#m348b10f152" y="199.584"/>
     <use style="fill:#bf00bf;stroke:#bf00bf;" x="515.033058" xlink:href="#m348b10f152" y="188.712"/>
     <use style="fill:#bf00bf;stroke:#bf00bf;" x="520.157025" xlink:href="#m348b10f152" y="221.328"/>
     <use style="fill:#bf00bf;stroke:#bf00bf;" x="525.280992" xlink:href="#m348b10f152" y="188.712"/>
     <use style="fill:#bf00bf;stroke:#bf00bf;" x="530.404959" xlink:href="#m348b10f152" y="210.456"/>
     <use style="fill:#bf00bf;stroke:#bf00bf;" x="535.528926" xlink:href="#m348b10f152" y="145.224"/>
     <use style="fill:#bf00bf;stroke:#bf00bf;" x="540.652893" xlink:href="#m348b10f152" y="221.328"/>
     <use style="fill:#bf00bf;stroke:#bf00bf;" x="545.77686" xlink:href="#m348b10f152" y="210.456"/>
     <use style="fill:#bf00bf;stroke:#bf00bf;" x="550.900826" xlink:href="#m348b10f152" y="177.84"/>
     <use style="fill:#bf00bf;stroke:#bf00bf;" x="556.024793" xlink:href="#m348b10f152" y="188.712"/>
     <use style="fill:#bf00bf;stroke:#bf00bf;" x="561.14876" xlink:href="#m348b10f152" y="199.584"/>
     <use style="fill:#bf00bf;stroke:#bf00bf;" x="566.272727" xlink:href="#m348b10f152" y="232.2"/>
     <use style="fill:#bf00bf;stroke:#bf00bf;" x="571.396694" xlink:href="#m348b10f152" y="145.224"/>
     <use style="fill:#bf00bf;stroke:#bf00bf;" x="576.520661" xlink:href="#m348b10f152" y="221.328"/>
     <use style="fill:#bf00bf;stroke:#bf00bf;" x="581.644628" xlink:href="#m348b10f152" y="177.84"/>
     <use style="fill:#bf00bf;stroke:#bf00bf;" x="586.768595" xlink:href="#m348b10f152" y="177.84"/>
     <use style="fill:#bf00bf;stroke:#bf00bf;" x="591.892562" xlink:href="#m348b10f152" y="188.712"/>
     <use style="fill:#bf00bf;stroke:#bf00bf;" x="597.016529" xlink:href="#m348b10f152" y="166.968"/>
     <use style="fill:#bf00bf;stroke:#bf00bf;" x="602.140496" xlink:href="#m348b10f152" y="243.072"/>
     <use style="fill:#bf00bf;stroke:#bf00bf;" x="607.264463" xlink:href="#m348b10f152" y="145.224"/>
     <use style="fill:#bf00bf;stroke:#bf00bf;" x="612.38843" xlink:href="#m348b10f152" y="210.456"/>
     <use style="fill:#bf00bf;stroke:#bf00bf;" x="617.512397" xlink:href="#m348b10f152" y="188.712"/>
     <use style="fill:#bf00bf;stroke:#bf00bf;" x="622.636364" xlink:href="#m348b10f152" y="210.456"/>
    </g>
   </g>
   <g id="line2d_18">
    <path clip-path="url(#pf0a4e8d133)" d="M 115.363636 319.176 
L 120.487603 253.944 
L 125.61157 406.152 
L 130.735537 395.28 
L 135.859504 351.792 
L 140.983471 373.536 
L 146.107438 340.92 
L 151.231405 384.408 
L 156.355372 351.792 
L 161.479339 373.536 
L 166.603306 340.92 
L 171.727273 395.28 
L 176.85124 362.664 
L 181.975207 406.152 
L 187.099174 340.92 
L 192.22314 373.536 
L 197.347107 384.408 
L 202.471074 373.536 
L 207.595041 319.176 
L 212.719008 427.896 
L 217.842975 384.408 
L 222.966942 384.408 
L 228.090909 351.792 
L 233.214876 395.28 
L 238.338843 373.536 
L 243.46281 340.92 
L 248.586777 395.28 
L 253.710744 362.664 
L 258.834711 395.28 
L 263.958678 340.92 
L 269.082645 395.28 
L 274.206612 362.664 
L 279.330579 362.664 
L 284.454545 362.664 
L 289.578512 373.536 
L 294.702479 373.536 
L 299.826446 373.536 
L 304.950413 319.176 
L 310.07438 406.152 
L 315.198347 330.048 
L 320.322314 395.28 
L 325.446281 417.024 
L 330.570248 362.664 
L 335.694215 362.664 
L 340.818182 362.664 
L 345.942149 384.408 
L 351.066116 340.92 
L 356.190083 384.408 
L 361.31405 384.408 
L 366.438017 340.92 
L 371.561983 395.28 
L 376.68595 340.92 
L 381.809917 351.792 
L 386.933884 373.536 
L 392.057851 373.536 
L 397.181818 384.408 
L 402.305785 351.792 
L 407.429752 373.536 
L 412.553719 373.536 
L 417.677686 362.664 
L 422.801653 395.28 
L 427.92562 395.28 
L 433.049587 340.92 
L 438.173554 373.536 
L 443.297521 395.28 
L 448.421488 373.536 
L 453.545455 373.536 
L 458.669421 351.792 
L 463.793388 384.408 
L 468.917355 373.536 
L 474.041322 351.792 
L 479.165289 395.28 
L 484.289256 330.048 
L 489.413223 384.408 
L 494.53719 373.536 
L 499.661157 319.176 
L 504.785124 395.28 
L 509.909091 384.408 
L 515.033058 340.92 
L 520.157025 449.64 
L 525.280992 319.176 
L 530.404959 406.152 
L 535.528926 384.408 
L 540.652893 351.792 
L 545.77686 395.28 
L 550.900826 373.536 
L 556.024793 319.176 
L 561.14876 427.896 
L 566.272727 395.28 
L 571.396694 340.92 
L 576.520661 373.536 
L 581.644628 330.048 
L 586.768595 373.536 
L 591.892562 395.28 
L 597.016529 351.792 
L 602.140496 340.92 
L 607.264463 362.664 
L 612.38843 406.152 
L 617.512397 395.28 
L 622.636364 395.28 
" style="fill:none;stroke:#0000ff;stroke-dasharray:8.4,3.6;stroke-dashoffset:0;stroke-width:3;"/>
    <defs>
     <path d="M 0 3 
C 0.795609 3 1.55874 2.683901 2.12132 2.12132 
C 2.683901 1.55874 3 0.795609 3 0 
C 3 -0.795609 2.683901 -1.55874 2.12132 -2.12132 
C 1.55874 -2.683901 0.795609 -3 0 -3 
C -0.795609 -3 -1.55874 -2.683901 -2.12132 -2.12132 
C -2.683901 -1.55874 -3 -0.795609 -3 0 
C -3 0.795609 -2.683901 1.55874 -2.12132 2.12132 
C -1.55874 2.683901 -0.795609 3 0 3 
z
" id="me1554a482c" style="stroke:#0000ff;"/>
    </defs>
    <g clip-path="url(#pf0a4e8d133)">
     <use style="fill:#0000ff;stroke:#0000ff;" x="115.363636" xlink:href="#me1554a482c" y="319.176"/>
     <use style="fill:#0000ff;stroke:#0000ff;" x="120.487603" xlink:href="#me1554a482c" y="253.944"/>
     <use style="fill:#0000ff;stroke:#0000ff;" x="125.61157" xlink:href="#me1554a482c" y="406.152"/>
     <use style="fill:#0000ff;stroke:#0000ff;" x="130.735537" xlink:href="#me1554a482c" y="395.28"/>
     <use style="fill:#0000ff;stroke:#0000ff;" x="135.859504" xlink:href="#me1554a482c" y="351.792"/>
     <use style="fill:#0000ff;stroke:#0000ff;" x="140.983471" xlink:href="#me1554a482c" y="373.536"/>
     <use style="fill:#0000ff;stroke:#0000ff;" x="146.107438" xlink:href="#me1554a482c" y="340.92"/>
     <use style="fill:#0000ff;stroke:#0000ff;" x="151.231405" xlink:href="#me1554a482c" y="384.408"/>
     <use style="fill:#0000ff;stroke:#0000ff;" x="156.355372" xlink:href="#me1554a482c" y="351.792"/>
     <use style="fill:#0000ff;stroke:#0000ff;" x="161.479339" xlink:href="#me1554a482c" y="373.536"/>
     <use style="fill:#0000ff;stroke:#0000ff;" x="166.603306" xlink:href="#me1554a482c" y="340.92"/>
     <use style="fill:#0000ff;stroke:#0000ff;" x="171.727273" xlink:href="#me1554a482c" y="395.28"/>
     <use style="fill:#0000ff;stroke:#0000ff;" x="176.85124" xlink:href="#me1554a482c" y="362.664"/>
     <use style="fill:#0000ff;stroke:#0000ff;" x="181.975207" xlink:href="#me1554a482c" y="406.152"/>
     <use style="fill:#0000ff;stroke:#0000ff;" x="187.099174" xlink:href="#me1554a482c" y="340.92"/>
     <use style="fill:#0000ff;stroke:#0000ff;" x="192.22314" xlink:href="#me1554a482c" y="373.536"/>
     <use style="fill:#0000ff;stroke:#0000ff;" x="197.347107" xlink:href="#me1554a482c" y="384.408"/>
     <use style="fill:#0000ff;stroke:#0000ff;" x="202.471074" xlink:href="#me1554a482c" y="373.536"/>
     <use style="fill:#0000ff;stroke:#0000ff;" x="207.595041" xlink:href="#me1554a482c" y="319.176"/>
     <use style="fill:#0000ff;stroke:#0000ff;" x="212.719008" xlink:href="#me1554a482c" y="427.896"/>
     <use style="fill:#0000ff;stroke:#0000ff;" x="217.842975" xlink:href="#me1554a482c" y="384.408"/>
     <use style="fill:#0000ff;stroke:#0000ff;" x="222.966942" xlink:href="#me1554a482c" y="384.408"/>
     <use style="fill:#0000ff;stroke:#0000ff;" x="228.090909" xlink:href="#me1554a482c" y="351.792"/>
     <use style="fill:#0000ff;stroke:#0000ff;" x="233.214876" xlink:href="#me1554a482c" y="395.28"/>
     <use style="fill:#0000ff;stroke:#0000ff;" x="238.338843" xlink:href="#me1554a482c" y="373.536"/>
     <use style="fill:#0000ff;stroke:#0000ff;" x="243.46281" xlink:href="#me1554a482c" y="340.92"/>
     <use style="fill:#0000ff;stroke:#0000ff;" x="248.586777" xlink:href="#me1554a482c" y="395.28"/>
     <use style="fill:#0000ff;stroke:#0000ff;" x="253.710744" xlink:href="#me1554a482c" y="362.664"/>
     <use style="fill:#0000ff;stroke:#0000ff;" x="258.834711" xlink:href="#me1554a482c" y="395.28"/>
     <use style="fill:#0000ff;stroke:#0000ff;" x="263.958678" xlink:href="#me1554a482c" y="340.92"/>
     <use style="fill:#0000ff;stroke:#0000ff;" x="269.082645" xlink:href="#me1554a482c" y="395.28"/>
     <use style="fill:#0000ff;stroke:#0000ff;" x="274.206612" xlink:href="#me1554a482c" y="362.664"/>
     <use style="fill:#0000ff;stroke:#0000ff;" x="279.330579" xlink:href="#me1554a482c" y="362.664"/>
     <use style="fill:#0000ff;stroke:#0000ff;" x="284.454545" xlink:href="#me1554a482c" y="362.664"/>
     <use style="fill:#0000ff;stroke:#0000ff;" x="289.578512" xlink:href="#me1554a482c" y="373.536"/>
     <use style="fill:#0000ff;stroke:#0000ff;" x="294.702479" xlink:href="#me1554a482c" y="373.536"/>
     <use style="fill:#0000ff;stroke:#0000ff;" x="299.826446" xlink:href="#me1554a482c" y="373.536"/>
     <use style="fill:#0000ff;stroke:#0000ff;" x="304.950413" xlink:href="#me1554a482c" y="319.176"/>
     <use style="fill:#0000ff;stroke:#0000ff;" x="310.07438" xlink:href="#me1554a482c" y="406.152"/>
     <use style="fill:#0000ff;stroke:#0000ff;" x="315.198347" xlink:href="#me1554a482c" y="330.048"/>
     <use style="fill:#0000ff;stroke:#0000ff;" x="320.322314" xlink:href="#me1554a482c" y="395.28"/>
     <use style="fill:#0000ff;stroke:#0000ff;" x="325.446281" xlink:href="#me1554a482c" y="417.024"/>
     <use style="fill:#0000ff;stroke:#0000ff;" x="330.570248" xlink:href="#me1554a482c" y="362.664"/>
     <use style="fill:#0000ff;stroke:#0000ff;" x="335.694215" xlink:href="#me1554a482c" y="362.664"/>
     <use style="fill:#0000ff;stroke:#0000ff;" x="340.818182" xlink:href="#me1554a482c" y="362.664"/>
     <use style="fill:#0000ff;stroke:#0000ff;" x="345.942149" xlink:href="#me1554a482c" y="384.408"/>
     <use style="fill:#0000ff;stroke:#0000ff;" x="351.066116" xlink:href="#me1554a482c" y="340.92"/>
     <use style="fill:#0000ff;stroke:#0000ff;" x="356.190083" xlink:href="#me1554a482c" y="384.408"/>
     <use style="fill:#0000ff;stroke:#0000ff;" x="361.31405" xlink:href="#me1554a482c" y="384.408"/>
     <use style="fill:#0000ff;stroke:#0000ff;" x="366.438017" xlink:href="#me1554a482c" y="340.92"/>
     <use style="fill:#0000ff;stroke:#0000ff;" x="371.561983" xlink:href="#me1554a482c" y="395.28"/>
     <use style="fill:#0000ff;stroke:#0000ff;" x="376.68595" xlink:href="#me1554a482c" y="340.92"/>
     <use style="fill:#0000ff;stroke:#0000ff;" x="381.809917" xlink:href="#me1554a482c" y="351.792"/>
     <use style="fill:#0000ff;stroke:#0000ff;" x="386.933884" xlink:href="#me1554a482c" y="373.536"/>
     <use style="fill:#0000ff;stroke:#0000ff;" x="392.057851" xlink:href="#me1554a482c" y="373.536"/>
     <use style="fill:#0000ff;stroke:#0000ff;" x="397.181818" xlink:href="#me1554a482c" y="384.408"/>
     <use style="fill:#0000ff;stroke:#0000ff;" x="402.305785" xlink:href="#me1554a482c" y="351.792"/>
     <use style="fill:#0000ff;stroke:#0000ff;" x="407.429752" xlink:href="#me1554a482c" y="373.536"/>
     <use style="fill:#0000ff;stroke:#0000ff;" x="412.553719" xlink:href="#me1554a482c" y="373.536"/>
     <use style="fill:#0000ff;stroke:#0000ff;" x="417.677686" xlink:href="#me1554a482c" y="362.664"/>
     <use style="fill:#0000ff;stroke:#0000ff;" x="422.801653" xlink:href="#me1554a482c" y="395.28"/>
     <use style="fill:#0000ff;stroke:#0000ff;" x="427.92562" xlink:href="#me1554a482c" y="395.28"/>
     <use style="fill:#0000ff;stroke:#0000ff;" x="433.049587" xlink:href="#me1554a482c" y="340.92"/>
     <use style="fill:#0000ff;stroke:#0000ff;" x="438.173554" xlink:href="#me1554a482c" y="373.536"/>
     <use style="fill:#0000ff;stroke:#0000ff;" x="443.297521" xlink:href="#me1554a482c" y="395.28"/>
     <use style="fill:#0000ff;stroke:#0000ff;" x="448.421488" xlink:href="#me1554a482c" y="373.536"/>
     <use style="fill:#0000ff;stroke:#0000ff;" x="453.545455" xlink:href="#me1554a482c" y="373.536"/>
     <use style="fill:#0000ff;stroke:#0000ff;" x="458.669421" xlink:href="#me1554a482c" y="351.792"/>
     <use style="fill:#0000ff;stroke:#0000ff;" x="463.793388" xlink:href="#me1554a482c" y="384.408"/>
     <use style="fill:#0000ff;stroke:#0000ff;" x="468.917355" xlink:href="#me1554a482c" y="373.536"/>
     <use style="fill:#0000ff;stroke:#0000ff;" x="474.041322" xlink:href="#me1554a482c" y="351.792"/>
     <use style="fill:#0000ff;stroke:#0000ff;" x="479.165289" xlink:href="#me1554a482c" y="395.28"/>
     <use style="fill:#0000ff;stroke:#0000ff;" x="484.289256" xlink:href="#me1554a482c" y="330.048"/>
     <use style="fill:#0000ff;stroke:#0000ff;" x="489.413223" xlink:href="#me1554a482c" y="384.408"/>
     <use style="fill:#0000ff;stroke:#0000ff;" x="494.53719" xlink:href="#me1554a482c" y="373.536"/>
     <use style="fill:#0000ff;stroke:#0000ff;" x="499.661157" xlink:href="#me1554a482c" y="319.176"/>
     <use style="fill:#0000ff;stroke:#0000ff;" x="504.785124" xlink:href="#me1554a482c" y="395.28"/>
     <use style="fill:#0000ff;stroke:#0000ff;" x="509.909091" xlink:href="#me1554a482c" y="384.408"/>
     <use style="fill:#0000ff;stroke:#0000ff;" x="515.033058" xlink:href="#me1554a482c" y="340.92"/>
     <use style="fill:#0000ff;stroke:#0000ff;" x="520.157025" xlink:href="#me1554a482c" y="449.64"/>
     <use style="fill:#0000ff;stroke:#0000ff;" x="525.280992" xlink:href="#me1554a482c" y="319.176"/>
     <use style="fill:#0000ff;stroke:#0000ff;" x="530.404959" xlink:href="#me1554a482c" y="406.152"/>
     <use style="fill:#0000ff;stroke:#0000ff;" x="535.528926" xlink:href="#me1554a482c" y="384.408"/>
     <use style="fill:#0000ff;stroke:#0000ff;" x="540.652893" xlink:href="#me1554a482c" y="351.792"/>
     <use style="fill:#0000ff;stroke:#0000ff;" x="545.77686" xlink:href="#me1554a482c" y="395.28"/>
     <use style="fill:#0000ff;stroke:#0000ff;" x="550.900826" xlink:href="#me1554a482c" y="373.536"/>
     <use style="fill:#0000ff;stroke:#0000ff;" x="556.024793" xlink:href="#me1554a482c" y="319.176"/>
     <use style="fill:#0000ff;stroke:#0000ff;" x="561.14876" xlink:href="#me1554a482c" y="427.896"/>
     <use style="fill:#0000ff;stroke:#0000ff;" x="566.272727" xlink:href="#me1554a482c" y="395.28"/>
     <use style="fill:#0000ff;stroke:#0000ff;" x="571.396694" xlink:href="#me1554a482c" y="340.92"/>
     <use style="fill:#0000ff;stroke:#0000ff;" x="576.520661" xlink:href="#me1554a482c" y="373.536"/>
     <use style="fill:#0000ff;stroke:#0000ff;" x="581.644628" xlink:href="#me1554a482c" y="330.048"/>
     <use style="fill:#0000ff;stroke:#0000ff;" x="586.768595" xlink:href="#me1554a482c" y="373.536"/>
     <use style="fill:#0000ff;stroke:#0000ff;" x="591.892562" xlink:href="#me1554a482c" y="395.28"/>
     <use style="fill:#0000ff;stroke:#0000ff;" x="597.016529" xlink:href="#me1554a482c" y="351.792"/>
     <use style="fill:#0000ff;stroke:#0000ff;" x="602.140496" xlink:href="#me1554a482c" y="340.92"/>
     <use style="fill:#0000ff;stroke:#0000ff;" x="607.264463" xlink:href="#me1554a482c" y="362.664"/>
     <use style="fill:#0000ff;stroke:#0000ff;" x="612.38843" xlink:href="#me1554a482c" y="406.152"/>
     <use style="fill:#0000ff;stroke:#0000ff;" x="617.512397" xlink:href="#me1554a482c" y="395.28"/>
     <use style="fill:#0000ff;stroke:#0000ff;" x="622.636364" xlink:href="#me1554a482c" y="395.28"/>
    </g>
   </g>
   <g id="patch_3">
    <path d="M 90 504 
L 90 69.12 
" style="fill:none;stroke:#000000;stroke-linecap:square;stroke-linejoin:miter;stroke-width:0.8;"/>
   </g>
   <g id="patch_4">
    <path d="M 648 504 
L 648 69.12 
" style="fill:none;stroke:#000000;stroke-linecap:square;stroke-linejoin:miter;stroke-width:0.8;"/>
   </g>
   <g id="patch_5">
    <path d="M 90 504 
L 648 504 
" style="fill:none;stroke:#000000;stroke-linecap:square;stroke-linejoin:miter;stroke-width:0.8;"/>
   </g>
   <g id="patch_6">
    <path d="M 90 69.12 
L 648 69.12 
" style="fill:none;stroke:#000000;stroke-linecap:square;stroke-linejoin:miter;stroke-width:0.8;"/>
   </g>
   <g id="text_18">
    <!-- SpineML 1 channel firing rates -->
    <defs>
     <path d="M 53.515625 70.515625 
L 53.515625 60.890625 
Q 47.90625 63.578125 42.921875 64.890625 
Q 37.9375 66.21875 33.296875 66.21875 
Q 25.25 66.21875 20.875 63.09375 
Q 16.5 59.96875 16.5 54.203125 
Q 16.5 49.359375 19.40625 46.890625 
Q 22.3125 44.4375 30.421875 42.921875 
L 36.375 41.703125 
Q 47.40625 39.59375 52.65625 34.296875 
Q 57.90625 29 57.90625 20.125 
Q 57.90625 9.515625 50.796875 4.046875 
Q 43.703125 -1.421875 29.984375 -1.421875 
Q 24.8125 -1.421875 18.96875 -0.25 
Q 13.140625 0.921875 6.890625 3.21875 
L 6.890625 13.375 
Q 12.890625 10.015625 18.65625 8.296875 
Q 24.421875 6.59375 29.984375 6.59375 
Q 38.421875 6.59375 43.015625 9.90625 
Q 47.609375 13.234375 47.609375 19.390625 
Q 47.609375 24.75 44.3125 27.78125 
Q 41.015625 30.8125 33.5 32.328125 
L 27.484375 33.5 
Q 16.453125 35.6875 11.515625 40.375 
Q 6.59375 45.0625 6.59375 53.421875 
Q 6.59375 63.09375 13.40625 68.65625 
Q 20.21875 74.21875 32.171875 74.21875 
Q 37.3125 74.21875 42.625 73.28125 
Q 47.953125 72.359375 53.515625 70.515625 
" id="DejaVuSans-53"/>
     <path d="M 18.109375 8.203125 
L 18.109375 -20.796875 
L 9.078125 -20.796875 
L 9.078125 54.6875 
L 18.109375 54.6875 
L 18.109375 46.390625 
Q 20.953125 51.265625 25.265625 53.625 
Q 29.59375 56 35.59375 56 
Q 45.5625 56 51.78125 48.09375 
Q 58.015625 40.1875 58.015625 27.296875 
Q 58.015625 14.40625 51.78125 6.484375 
Q 45.5625 -1.421875 35.59375 -1.421875 
Q 29.59375 -1.421875 25.265625 0.953125 
Q 20.953125 3.328125 18.109375 8.203125 
M 48.6875 27.296875 
Q 48.6875 37.203125 44.609375 42.84375 
Q 40.53125 48.484375 33.40625 48.484375 
Q 26.265625 48.484375 22.1875 42.84375 
Q 18.109375 37.203125 18.109375 27.296875 
Q 18.109375 17.390625 22.1875 11.75 
Q 26.265625 6.109375 33.40625 6.109375 
Q 40.53125 6.109375 44.609375 11.75 
Q 48.6875 17.390625 48.6875 27.296875 
" id="DejaVuSans-70"/>
     <path d="M 9.8125 72.90625 
L 24.515625 72.90625 
L 43.109375 23.296875 
L 61.8125 72.90625 
L 76.515625 72.90625 
L 76.515625 0 
L 66.890625 0 
L 66.890625 64.015625 
L 48.09375 14.015625 
L 38.1875 14.015625 
L 19.390625 64.015625 
L 19.390625 0 
L 9.8125 0 
z
" id="DejaVuSans-4d"/>
     <path d="M 9.8125 72.90625 
L 19.671875 72.90625 
L 19.671875 8.296875 
L 55.171875 8.296875 
L 55.171875 0 
L 9.8125 0 
z
" id="DejaVuSans-4c"/>
     <path d="M 48.78125 52.59375 
L 48.78125 44.1875 
Q 44.96875 46.296875 41.140625 47.34375 
Q 37.3125 48.390625 33.40625 48.390625 
Q 24.65625 48.390625 19.8125 42.84375 
Q 14.984375 37.3125 14.984375 27.296875 
Q 14.984375 17.28125 19.8125 11.734375 
Q 24.65625 6.203125 33.40625 6.203125 
Q 37.3125 6.203125 41.140625 7.25 
Q 44.96875 8.296875 48.78125 10.40625 
L 48.78125 2.09375 
Q 45.015625 0.34375 40.984375 -0.53125 
Q 36.96875 -1.421875 32.421875 -1.421875 
Q 20.0625 -1.421875 12.78125 6.34375 
Q 5.515625 14.109375 5.515625 27.296875 
Q 5.515625 40.671875 12.859375 48.328125 
Q 20.21875 56 33.015625 56 
Q 37.15625 56 41.109375 55.140625 
Q 45.0625 54.296875 48.78125 52.59375 
" id="DejaVuSans-63"/>
     <path d="M 54.890625 33.015625 
L 54.890625 0 
L 45.90625 0 
L 45.90625 32.71875 
Q 45.90625 40.484375 42.875 44.328125 
Q 39.84375 48.1875 33.796875 48.1875 
Q 26.515625 48.1875 22.3125 43.546875 
Q 18.109375 38.921875 18.109375 30.90625 
L 18.109375 0 
L 9.078125 0 
L 9.078125 75.984375 
L 18.109375 75.984375 
L 18.109375 46.1875 
Q 21.34375 51.125 25.703125 53.5625 
Q 30.078125 56 35.796875 56 
Q 45.21875 56 50.046875 50.171875 
Q 54.890625 44.34375 54.890625 33.015625 
" id="DejaVuSans-68"/>
    </defs>
    <g transform="translate(186.3525 63.12)scale(0.24 -0.24)">
     <use xlink:href="#DejaVuSans-53"/>
     <use x="63.476562" xlink:href="#DejaVuSans-70"/>
     <use x="126.953125" xlink:href="#DejaVuSans-69"/>
     <use x="154.736328" xlink:href="#DejaVuSans-6e"/>
     <use x="218.115234" xlink:href="#DejaVuSans-65"/>
     <use x="279.638672" xlink:href="#DejaVuSans-4d"/>
     <use x="365.917969" xlink:href="#DejaVuSans-4c"/>
     <use x="421.630859" xlink:href="#DejaVuSans-20"/>
     <use x="453.417969" xlink:href="#DejaVuSans-31"/>
     <use x="517.041016" xlink:href="#DejaVuSans-20"/>
     <use x="548.828125" xlink:href="#DejaVuSans-63"/>
     <use x="603.808594" xlink:href="#DejaVuSans-68"/>
     <use x="667.1875" xlink:href="#DejaVuSans-61"/>
     <use x="728.466797" xlink:href="#DejaVuSans-6e"/>
     <use x="791.845703" xlink:href="#DejaVuSans-6e"/>
     <use x="855.224609" xlink:href="#DejaVuSans-65"/>
     <use x="916.748047" xlink:href="#DejaVuSans-6c"/>
     <use x="944.53125" xlink:href="#DejaVuSans-20"/>
     <use x="976.318359" xlink:href="#DejaVuSans-66"/>
     <use x="1011.523438" xlink:href="#DejaVuSans-69"/>
     <use x="1039.306641" xlink:href="#DejaVuSans-72"/>
     <use x="1080.419922" xlink:href="#DejaVuSans-69"/>
     <use x="1108.203125" xlink:href="#DejaVuSans-6e"/>
     <use x="1171.582031" xlink:href="#DejaVuSans-67"/>
     <use x="1235.058594" xlink:href="#DejaVuSans-20"/>
     <use x="1266.845703" xlink:href="#DejaVuSans-72"/>
     <use x="1307.958984" xlink:href="#DejaVuSans-61"/>
     <use x="1369.238281" xlink:href="#DejaVuSans-74"/>
     <use x="1408.447266" xlink:href="#DejaVuSans-65"/>
     <use x="1469.970703" xlink:href="#DejaVuSans-73"/>
    </g>
   </g>
   <g id="legend_1">
    <g id="patch_7">
     <path d="M 565.4875 141.968125 
L 638.2 141.968125 
Q 641 141.968125 641 139.168125 
L 641 78.92 
Q 641 76.12 638.2 76.12 
L 565.4875 76.12 
Q 562.6875 76.12 562.6875 78.92 
L 562.6875 139.168125 
Q 562.6875 141.968125 565.4875 141.968125 
z
" style="fill:#ffffff;opacity:0.8;stroke:#cccccc;stroke-linejoin:miter;"/>
    </g>
    <g id="line2d_19">
     <path d="M 568.2875 87.457812 
L 596.2875 87.457812 
" style="fill:none;stroke:#bfbf00;stroke-dasharray:8.4,3.6;stroke-dashoffset:0;stroke-width:3;"/>
    </g>
    <g id="line2d_20">
     <g>
      <use style="fill:#bfbf00;stroke:#bfbf00;" x="582.2875" xlink:href="#mb3c8f6da5a" y="87.457812"/>
     </g>
    </g>
    <g id="text_19">
     <!-- SNr -->
     <defs>
      <path d="M 9.8125 72.90625 
L 23.09375 72.90625 
L 55.421875 11.921875 
L 55.421875 72.90625 
L 64.984375 72.90625 
L 64.984375 0 
L 51.703125 0 
L 19.390625 60.984375 
L 19.390625 0 
L 9.8125 0 
z
" id="DejaVuSans-4e"/>
     </defs>
     <g transform="translate(607.4875 92.357812)scale(0.14 -0.14)">
      <use xlink:href="#DejaVuSans-53"/>
      <use x="63.476562" xlink:href="#DejaVuSans-4e"/>
      <use x="138.28125" xlink:href="#DejaVuSans-72"/>
     </g>
    </g>
    <g id="line2d_21">
     <path d="M 568.2875 108.007187 
L 596.2875 108.007187 
" style="fill:none;stroke:#bf00bf;stroke-dasharray:8.4,3.6;stroke-dashoffset:0;stroke-width:3;"/>
    </g>
    <g id="line2d_22">
     <g>
      <use style="fill:#bf00bf;stroke:#bf00bf;" x="582.2875" xlink:href="#m348b10f152" y="108.007187"/>
     </g>
    </g>
    <g id="text_20">
     <!-- GPe -->
     <defs>
      <path d="M 59.515625 10.40625 
L 59.515625 29.984375 
L 43.40625 29.984375 
L 43.40625 38.09375 
L 69.28125 38.09375 
L 69.28125 6.78125 
Q 63.578125 2.734375 56.6875 0.65625 
Q 49.8125 -1.421875 42 -1.421875 
Q 24.90625 -1.421875 15.25 8.5625 
Q 5.609375 18.5625 5.609375 36.375 
Q 5.609375 54.25 15.25 64.234375 
Q 24.90625 74.21875 42 74.21875 
Q 49.125 74.21875 55.546875 72.453125 
Q 61.96875 70.703125 67.390625 67.28125 
L 67.390625 56.78125 
Q 61.921875 61.421875 55.765625 63.765625 
Q 49.609375 66.109375 42.828125 66.109375 
Q 29.4375 66.109375 22.71875 58.640625 
Q 16.015625 51.171875 16.015625 36.375 
Q 16.015625 21.625 22.71875 14.15625 
Q 29.4375 6.6875 42.828125 6.6875 
Q 48.046875 6.6875 52.140625 7.59375 
Q 56.25 8.5 59.515625 10.40625 
" id="DejaVuSans-47"/>
      <path d="M 19.671875 64.796875 
L 19.671875 37.40625 
L 32.078125 37.40625 
Q 38.96875 37.40625 42.71875 40.96875 
Q 46.484375 44.53125 46.484375 51.125 
Q 46.484375 57.671875 42.71875 61.234375 
Q 38.96875 64.796875 32.078125 64.796875 
z
M 9.8125 72.90625 
L 32.078125 72.90625 
Q 44.34375 72.90625 50.609375 67.359375 
Q 56.890625 61.8125 56.890625 51.125 
Q 56.890625 40.328125 50.609375 34.8125 
Q 44.34375 29.296875 32.078125 29.296875 
L 19.671875 29.296875 
L 19.671875 0 
L 9.8125 0 
z
" id="DejaVuSans-50"/>
     </defs>
     <g transform="translate(607.4875 112.907187)scale(0.14 -0.14)">
      <use xlink:href="#DejaVuSans-47"/>
      <use x="77.490234" xlink:href="#DejaVuSans-50"/>
      <use x="137.746094" xlink:href="#DejaVuSans-65"/>
     </g>
    </g>
    <g id="line2d_23">
     <path d="M 568.2875 128.556562 
L 596.2875 128.556562 
" style="fill:none;stroke:#0000ff;stroke-dasharray:8.4,3.6;stroke-dashoffset:0;stroke-width:3;"/>
    </g>
    <g id="line2d_24">
     <g>
      <use style="fill:#0000ff;stroke:#0000ff;" x="582.2875" xlink:href="#me1554a482c" y="128.556562"/>
     </g>
    </g>
    <g id="text_21">
     <!-- STN -->
     <defs>
      <path d="M -0.296875 72.90625 
L 61.375 72.90625 
L 61.375 64.59375 
L 35.5 64.59375 
L 35.5 0 
L 25.59375 0 
L 25.59375 64.59375 
L -0.296875 64.59375 
z
" id="DejaVuSans-54"/>
     </defs>
     <g transform="translate(607.4875 133.456562)scale(0.14 -0.14)">
      <use xlink:href="#DejaVuSans-53"/>
      <use x="63.476562" xlink:href="#DejaVuSans-54"/>
      <use x="124.560547" xlink:href="#DejaVuSans-4e"/>
     </g>
    </g>
   </g>
  </g>
 </g>
 <defs>
  <clipPath id="pf0a4e8d133">
   <rect height="434.88" width="558" x="90" y="69.12"/>
  </clipPath>
 </defs>
</svg>
