<?xml version="1.0" encoding="utf-8" standalone="no"?>
<!DOCTYPE svg PUBLIC "-//W3C//DTD SVG 1.1//EN"
  "http://www.w3.org/Graphics/SVG/1.1/DTD/svg11.dtd">
<!-- Created with matplotlib (http://matplotlib.org/) -->
<svg height="576pt" version="1.1" viewBox="0 0 720 576" width="720pt" xmlns="http://www.w3.org/2000/svg" xmlns:xlink="http://www.w3.org/1999/xlink">
 <defs>
  <style type="text/css">
*{stroke-linecap:butt;stroke-linejoin:round;}
  </style>
 </defs>
 <g id="figure_1">
  <g id="patch_1">
   <path d="
M0 576
L720 576
L720 0
L0 0
z
" style="fill:#ffffff;"/>
  </g>
  <g id="axes_1">
   <g id="patch_2">
    <path d="
M90 504
L648 504
L648 57.6
L90 57.6
L90 504" style="fill:none;"/>
   </g>
   <g id="line2d_1">
    <path clip-path="url(#p337f83845a)" d="
M90.1562 84.384
L104.098 236.16
L118.04 236.16
L131.982 236.16
L145.924 218.304
L159.866 280.8
L173.809 271.872
L187.751 209.376
L201.693 289.728
L215.635 218.304
L229.577 262.944
L243.519 218.304
L257.461 254.016
L271.403 236.16
L285.345 254.016
L299.287 236.16
L313.229 254.016
L327.171 236.16
L341.113 254.016
L355.055 236.16
L368.997 280.8
L382.939 209.376
L396.881 280.8
L410.823 262.944
L424.765 289.728
L438.707 191.52
L452.65 236.16
L466.592 254.016
L480.534 254.016
L494.476 227.232
L508.418 245.088
L522.36 236.16
L536.302 271.872
L550.244 209.376
L564.186 298.656
L578.128 236.16
L592.07 271.872
L606.012 236.16
L619.954 218.304
L633.896 271.872" style="fill:none;stroke:#bfbf00;stroke-dasharray:6.000000,6.000000;stroke-dashoffset:0.0;stroke-width:3;"/>
    <defs>
     <path d="
M0 3
C0.795609 3 1.55874 2.6839 2.12132 2.12132
C2.6839 1.55874 3 0.795609 3 0
C3 -0.795609 2.6839 -1.55874 2.12132 -2.12132
C1.55874 -2.6839 0.795609 -3 0 -3
C-0.795609 -3 -1.55874 -2.6839 -2.12132 -2.12132
C-2.6839 -1.55874 -3 -0.795609 -3 0
C-3 0.795609 -2.6839 1.55874 -2.12132 2.12132
C-1.55874 2.6839 -0.795609 3 0 3
z
" id="m55fa9e03f3" style="stroke:#000000;stroke-width:0.5;"/>
    </defs>
    <g clip-path="url(#p337f83845a)">
     <use style="fill:#bfbf00;stroke:#000000;stroke-width:0.5;" x="90.15624" xlink:href="#m55fa9e03f3" y="84.384"/>
     <use style="fill:#bfbf00;stroke:#000000;stroke-width:0.5;" x="104.098289317" xlink:href="#m55fa9e03f3" y="236.16"/>
     <use style="fill:#bfbf00;stroke:#000000;stroke-width:0.5;" x="118.040338635" xlink:href="#m55fa9e03f3" y="236.16"/>
     <use style="fill:#bfbf00;stroke:#000000;stroke-width:0.5;" x="131.982387952" xlink:href="#m55fa9e03f3" y="236.16"/>
     <use style="fill:#bfbf00;stroke:#000000;stroke-width:0.5;" x="145.92443727" xlink:href="#m55fa9e03f3" y="218.304"/>
     <use style="fill:#bfbf00;stroke:#000000;stroke-width:0.5;" x="159.866486587" xlink:href="#m55fa9e03f3" y="280.8"/>
     <use style="fill:#bfbf00;stroke:#000000;stroke-width:0.5;" x="173.808535905" xlink:href="#m55fa9e03f3" y="271.872"/>
     <use style="fill:#bfbf00;stroke:#000000;stroke-width:0.5;" x="187.750585222" xlink:href="#m55fa9e03f3" y="209.376"/>
     <use style="fill:#bfbf00;stroke:#000000;stroke-width:0.5;" x="201.69263454" xlink:href="#m55fa9e03f3" y="289.728"/>
     <use style="fill:#bfbf00;stroke:#000000;stroke-width:0.5;" x="215.634683857" xlink:href="#m55fa9e03f3" y="218.304"/>
     <use style="fill:#bfbf00;stroke:#000000;stroke-width:0.5;" x="229.576733175" xlink:href="#m55fa9e03f3" y="262.944"/>
     <use style="fill:#bfbf00;stroke:#000000;stroke-width:0.5;" x="243.518782492" xlink:href="#m55fa9e03f3" y="218.304"/>
     <use style="fill:#bfbf00;stroke:#000000;stroke-width:0.5;" x="257.46083181" xlink:href="#m55fa9e03f3" y="254.016"/>
     <use style="fill:#bfbf00;stroke:#000000;stroke-width:0.5;" x="271.402881127" xlink:href="#m55fa9e03f3" y="236.16"/>
     <use style="fill:#bfbf00;stroke:#000000;stroke-width:0.5;" x="285.344930445" xlink:href="#m55fa9e03f3" y="254.016"/>
     <use style="fill:#bfbf00;stroke:#000000;stroke-width:0.5;" x="299.286979762" xlink:href="#m55fa9e03f3" y="236.16"/>
     <use style="fill:#bfbf00;stroke:#000000;stroke-width:0.5;" x="313.22902908" xlink:href="#m55fa9e03f3" y="254.016"/>
     <use style="fill:#bfbf00;stroke:#000000;stroke-width:0.5;" x="327.171078397" xlink:href="#m55fa9e03f3" y="236.16"/>
     <use style="fill:#bfbf00;stroke:#000000;stroke-width:0.5;" x="341.113127714" xlink:href="#m55fa9e03f3" y="254.016"/>
     <use style="fill:#bfbf00;stroke:#000000;stroke-width:0.5;" x="355.055177032" xlink:href="#m55fa9e03f3" y="236.16"/>
     <use style="fill:#bfbf00;stroke:#000000;stroke-width:0.5;" x="368.997226349" xlink:href="#m55fa9e03f3" y="280.8"/>
     <use style="fill:#bfbf00;stroke:#000000;stroke-width:0.5;" x="382.939275667" xlink:href="#m55fa9e03f3" y="209.376"/>
     <use style="fill:#bfbf00;stroke:#000000;stroke-width:0.5;" x="396.881324984" xlink:href="#m55fa9e03f3" y="280.8"/>
     <use style="fill:#bfbf00;stroke:#000000;stroke-width:0.5;" x="410.823374302" xlink:href="#m55fa9e03f3" y="262.944"/>
     <use style="fill:#bfbf00;stroke:#000000;stroke-width:0.5;" x="424.765423619" xlink:href="#m55fa9e03f3" y="289.728"/>
     <use style="fill:#bfbf00;stroke:#000000;stroke-width:0.5;" x="438.707472937" xlink:href="#m55fa9e03f3" y="191.52"/>
     <use style="fill:#bfbf00;stroke:#000000;stroke-width:0.5;" x="452.649522254" xlink:href="#m55fa9e03f3" y="236.16"/>
     <use style="fill:#bfbf00;stroke:#000000;stroke-width:0.5;" x="466.591571572" xlink:href="#m55fa9e03f3" y="254.016"/>
     <use style="fill:#bfbf00;stroke:#000000;stroke-width:0.5;" x="480.533620889" xlink:href="#m55fa9e03f3" y="254.016"/>
     <use style="fill:#bfbf00;stroke:#000000;stroke-width:0.5;" x="494.475670207" xlink:href="#m55fa9e03f3" y="227.232"/>
     <use style="fill:#bfbf00;stroke:#000000;stroke-width:0.5;" x="508.417719524" xlink:href="#m55fa9e03f3" y="245.088"/>
     <use style="fill:#bfbf00;stroke:#000000;stroke-width:0.5;" x="522.359768842" xlink:href="#m55fa9e03f3" y="236.16"/>
     <use style="fill:#bfbf00;stroke:#000000;stroke-width:0.5;" x="536.301818159" xlink:href="#m55fa9e03f3" y="271.872"/>
     <use style="fill:#bfbf00;stroke:#000000;stroke-width:0.5;" x="550.243867477" xlink:href="#m55fa9e03f3" y="209.376"/>
     <use style="fill:#bfbf00;stroke:#000000;stroke-width:0.5;" x="564.185916794" xlink:href="#m55fa9e03f3" y="298.656"/>
     <use style="fill:#bfbf00;stroke:#000000;stroke-width:0.5;" x="578.127966111" xlink:href="#m55fa9e03f3" y="236.16"/>
     <use style="fill:#bfbf00;stroke:#000000;stroke-width:0.5;" x="592.070015429" xlink:href="#m55fa9e03f3" y="271.872"/>
     <use style="fill:#bfbf00;stroke:#000000;stroke-width:0.5;" x="606.012064746" xlink:href="#m55fa9e03f3" y="236.16"/>
     <use style="fill:#bfbf00;stroke:#000000;stroke-width:0.5;" x="619.954114064" xlink:href="#m55fa9e03f3" y="218.304"/>
     <use style="fill:#bfbf00;stroke:#000000;stroke-width:0.5;" x="633.896163381" xlink:href="#m55fa9e03f3" y="271.872"/>
    </g>
   </g>
   <g id="line2d_2">
    <path clip-path="url(#p337f83845a)" d="
M90.1562 84.384
L104.098 236.16
L118.04 236.16
L131.982 236.16
L145.924 218.304
L159.866 280.8
L173.809 271.872
L187.751 209.376
L201.693 289.728
L215.635 218.304
L229.577 262.944
L243.519 218.304
L257.461 254.016
L271.403 236.16
L285.345 254.016
L299.287 227.232
L313.229 262.944
L327.171 236.16
L341.113 254.016
L355.055 236.16
L368.997 280.8
L382.939 209.376
L396.881 271.872
L410.823 254.016
L424.765 477.216
L438.707 387.936
L452.65 468.288
L466.592 441.504
L480.534 423.648
L494.476 414.72
L508.418 396.864
L522.36 343.296
L536.302 468.288
L550.244 387.936
L564.186 486.144
L578.128 459.36
L592.07 441.504
L606.012 396.864
L619.954 477.216
L633.896 414.72" style="fill:none;stroke:#bf00bf;stroke-dasharray:6.000000,6.000000;stroke-dashoffset:0.0;stroke-width:3;"/>
    <defs>
     <path d="
M0 3
C0.795609 3 1.55874 2.6839 2.12132 2.12132
C2.6839 1.55874 3 0.795609 3 0
C3 -0.795609 2.6839 -1.55874 2.12132 -2.12132
C1.55874 -2.6839 0.795609 -3 0 -3
C-0.795609 -3 -1.55874 -2.6839 -2.12132 -2.12132
C-2.6839 -1.55874 -3 -0.795609 -3 0
C-3 0.795609 -2.6839 1.55874 -2.12132 2.12132
C-1.55874 2.6839 -0.795609 3 0 3
z
" id="m340e750fc5" style="stroke:#000000;stroke-width:0.5;"/>
    </defs>
    <g clip-path="url(#p337f83845a)">
     <use style="fill:#bf00bf;stroke:#000000;stroke-width:0.5;" x="90.15624" xlink:href="#m340e750fc5" y="84.384"/>
     <use style="fill:#bf00bf;stroke:#000000;stroke-width:0.5;" x="104.098289317" xlink:href="#m340e750fc5" y="236.16"/>
     <use style="fill:#bf00bf;stroke:#000000;stroke-width:0.5;" x="118.040338635" xlink:href="#m340e750fc5" y="236.16"/>
     <use style="fill:#bf00bf;stroke:#000000;stroke-width:0.5;" x="131.982387952" xlink:href="#m340e750fc5" y="236.16"/>
     <use style="fill:#bf00bf;stroke:#000000;stroke-width:0.5;" x="145.92443727" xlink:href="#m340e750fc5" y="218.304"/>
     <use style="fill:#bf00bf;stroke:#000000;stroke-width:0.5;" x="159.866486587" xlink:href="#m340e750fc5" y="280.8"/>
     <use style="fill:#bf00bf;stroke:#000000;stroke-width:0.5;" x="173.808535905" xlink:href="#m340e750fc5" y="271.872"/>
     <use style="fill:#bf00bf;stroke:#000000;stroke-width:0.5;" x="187.750585222" xlink:href="#m340e750fc5" y="209.376"/>
     <use style="fill:#bf00bf;stroke:#000000;stroke-width:0.5;" x="201.69263454" xlink:href="#m340e750fc5" y="289.728"/>
     <use style="fill:#bf00bf;stroke:#000000;stroke-width:0.5;" x="215.634683857" xlink:href="#m340e750fc5" y="218.304"/>
     <use style="fill:#bf00bf;stroke:#000000;stroke-width:0.5;" x="229.576733175" xlink:href="#m340e750fc5" y="262.944"/>
     <use style="fill:#bf00bf;stroke:#000000;stroke-width:0.5;" x="243.518782492" xlink:href="#m340e750fc5" y="218.304"/>
     <use style="fill:#bf00bf;stroke:#000000;stroke-width:0.5;" x="257.46083181" xlink:href="#m340e750fc5" y="254.016"/>
     <use style="fill:#bf00bf;stroke:#000000;stroke-width:0.5;" x="271.402881127" xlink:href="#m340e750fc5" y="236.16"/>
     <use style="fill:#bf00bf;stroke:#000000;stroke-width:0.5;" x="285.344930445" xlink:href="#m340e750fc5" y="254.016"/>
     <use style="fill:#bf00bf;stroke:#000000;stroke-width:0.5;" x="299.286979762" xlink:href="#m340e750fc5" y="227.232"/>
     <use style="fill:#bf00bf;stroke:#000000;stroke-width:0.5;" x="313.22902908" xlink:href="#m340e750fc5" y="262.944"/>
     <use style="fill:#bf00bf;stroke:#000000;stroke-width:0.5;" x="327.171078397" xlink:href="#m340e750fc5" y="236.16"/>
     <use style="fill:#bf00bf;stroke:#000000;stroke-width:0.5;" x="341.113127714" xlink:href="#m340e750fc5" y="254.016"/>
     <use style="fill:#bf00bf;stroke:#000000;stroke-width:0.5;" x="355.055177032" xlink:href="#m340e750fc5" y="236.16"/>
     <use style="fill:#bf00bf;stroke:#000000;stroke-width:0.5;" x="368.997226349" xlink:href="#m340e750fc5" y="280.8"/>
     <use style="fill:#bf00bf;stroke:#000000;stroke-width:0.5;" x="382.939275667" xlink:href="#m340e750fc5" y="209.376"/>
     <use style="fill:#bf00bf;stroke:#000000;stroke-width:0.5;" x="396.881324984" xlink:href="#m340e750fc5" y="271.872"/>
     <use style="fill:#bf00bf;stroke:#000000;stroke-width:0.5;" x="410.823374302" xlink:href="#m340e750fc5" y="254.016"/>
     <use style="fill:#bf00bf;stroke:#000000;stroke-width:0.5;" x="424.765423619" xlink:href="#m340e750fc5" y="477.216"/>
     <use style="fill:#bf00bf;stroke:#000000;stroke-width:0.5;" x="438.707472937" xlink:href="#m340e750fc5" y="387.936"/>
     <use style="fill:#bf00bf;stroke:#000000;stroke-width:0.5;" x="452.649522254" xlink:href="#m340e750fc5" y="468.288"/>
     <use style="fill:#bf00bf;stroke:#000000;stroke-width:0.5;" x="466.591571572" xlink:href="#m340e750fc5" y="441.504"/>
     <use style="fill:#bf00bf;stroke:#000000;stroke-width:0.5;" x="480.533620889" xlink:href="#m340e750fc5" y="423.648"/>
     <use style="fill:#bf00bf;stroke:#000000;stroke-width:0.5;" x="494.475670207" xlink:href="#m340e750fc5" y="414.72"/>
     <use style="fill:#bf00bf;stroke:#000000;stroke-width:0.5;" x="508.417719524" xlink:href="#m340e750fc5" y="396.864"/>
     <use style="fill:#bf00bf;stroke:#000000;stroke-width:0.5;" x="522.359768842" xlink:href="#m340e750fc5" y="343.296"/>
     <use style="fill:#bf00bf;stroke:#000000;stroke-width:0.5;" x="536.301818159" xlink:href="#m340e750fc5" y="468.288"/>
     <use style="fill:#bf00bf;stroke:#000000;stroke-width:0.5;" x="550.243867477" xlink:href="#m340e750fc5" y="387.936"/>
     <use style="fill:#bf00bf;stroke:#000000;stroke-width:0.5;" x="564.185916794" xlink:href="#m340e750fc5" y="486.144"/>
     <use style="fill:#bf00bf;stroke:#000000;stroke-width:0.5;" x="578.127966111" xlink:href="#m340e750fc5" y="459.36"/>
     <use style="fill:#bf00bf;stroke:#000000;stroke-width:0.5;" x="592.070015429" xlink:href="#m340e750fc5" y="441.504"/>
     <use style="fill:#bf00bf;stroke:#000000;stroke-width:0.5;" x="606.012064746" xlink:href="#m340e750fc5" y="396.864"/>
     <use style="fill:#bf00bf;stroke:#000000;stroke-width:0.5;" x="619.954114064" xlink:href="#m340e750fc5" y="477.216"/>
     <use style="fill:#bf00bf;stroke:#000000;stroke-width:0.5;" x="633.896163381" xlink:href="#m340e750fc5" y="414.72"/>
    </g>
   </g>
   <g id="line2d_3">
    <path clip-path="url(#p337f83845a)" d="
M90.1562 84.384
L104.034 236.16
L117.911 245.088
L131.788 227.232
L145.666 218.304
L159.543 280.8
L173.42 271.872
L187.297 209.376
L201.175 289.728
L215.052 218.304
L228.929 262.944
L242.807 218.304
L256.684 414.72
L270.561 379.008
L284.439 414.72
L298.316 414.72
L312.193 387.936
L326.071 280.8
L339.948 441.504
L353.825 352.224
L367.703 379.008
L381.58 396.864
L395.457 370.08
L409.335 441.504
L423.212 379.008
L437.089 379.008
L450.967 387.936
L464.844 414.72
L478.721 352.224
L492.599 343.296
L506.476 361.152
L520.353 343.296
L534.231 414.72
L548.108 468.288
L561.985 343.296
L575.862 370.08
L589.74 396.864
L603.617 387.936
L617.494 396.864
L631.372 387.936" style="fill:none;stroke:#0000ff;stroke-dasharray:6.000000,6.000000;stroke-dashoffset:0.0;stroke-width:3;"/>
    <defs>
     <path d="
M0 3
C0.795609 3 1.55874 2.6839 2.12132 2.12132
C2.6839 1.55874 3 0.795609 3 0
C3 -0.795609 2.6839 -1.55874 2.12132 -2.12132
C1.55874 -2.6839 0.795609 -3 0 -3
C-0.795609 -3 -1.55874 -2.6839 -2.12132 -2.12132
C-2.6839 -1.55874 -3 -0.795609 -3 0
C-3 0.795609 -2.6839 1.55874 -2.12132 2.12132
C-1.55874 2.6839 -0.795609 3 0 3
z
" id="mf1e9a9e4ae" style="stroke:#000000;stroke-width:0.5;"/>
    </defs>
    <g clip-path="url(#p337f83845a)">
     <use style="fill:#0000ff;stroke:#000000;stroke-width:0.5;" x="90.15624" xlink:href="#mf1e9a9e4ae" y="84.384"/>
     <use style="fill:#0000ff;stroke:#000000;stroke-width:0.5;" x="104.033560772" xlink:href="#mf1e9a9e4ae" y="236.16"/>
     <use style="fill:#0000ff;stroke:#000000;stroke-width:0.5;" x="117.910881544" xlink:href="#mf1e9a9e4ae" y="245.088"/>
     <use style="fill:#0000ff;stroke:#000000;stroke-width:0.5;" x="131.788202316" xlink:href="#mf1e9a9e4ae" y="227.232"/>
     <use style="fill:#0000ff;stroke:#000000;stroke-width:0.5;" x="145.665523088" xlink:href="#mf1e9a9e4ae" y="218.304"/>
     <use style="fill:#0000ff;stroke:#000000;stroke-width:0.5;" x="159.54284386" xlink:href="#mf1e9a9e4ae" y="280.8"/>
     <use style="fill:#0000ff;stroke:#000000;stroke-width:0.5;" x="173.420164632" xlink:href="#mf1e9a9e4ae" y="271.872"/>
     <use style="fill:#0000ff;stroke:#000000;stroke-width:0.5;" x="187.297485404" xlink:href="#mf1e9a9e4ae" y="209.376"/>
     <use style="fill:#0000ff;stroke:#000000;stroke-width:0.5;" x="201.174806176" xlink:href="#mf1e9a9e4ae" y="289.728"/>
     <use style="fill:#0000ff;stroke:#000000;stroke-width:0.5;" x="215.052126948" xlink:href="#mf1e9a9e4ae" y="218.304"/>
     <use style="fill:#0000ff;stroke:#000000;stroke-width:0.5;" x="228.92944772" xlink:href="#mf1e9a9e4ae" y="262.944"/>
     <use style="fill:#0000ff;stroke:#000000;stroke-width:0.5;" x="242.806768492" xlink:href="#mf1e9a9e4ae" y="218.304"/>
     <use style="fill:#0000ff;stroke:#000000;stroke-width:0.5;" x="256.684089264" xlink:href="#mf1e9a9e4ae" y="414.72"/>
     <use style="fill:#0000ff;stroke:#000000;stroke-width:0.5;" x="270.561410036" xlink:href="#mf1e9a9e4ae" y="379.008"/>
     <use style="fill:#0000ff;stroke:#000000;stroke-width:0.5;" x="284.438730808" xlink:href="#mf1e9a9e4ae" y="414.72"/>
     <use style="fill:#0000ff;stroke:#000000;stroke-width:0.5;" x="298.31605158" xlink:href="#mf1e9a9e4ae" y="414.72"/>
     <use style="fill:#0000ff;stroke:#000000;stroke-width:0.5;" x="312.193372352" xlink:href="#mf1e9a9e4ae" y="387.936"/>
     <use style="fill:#0000ff;stroke:#000000;stroke-width:0.5;" x="326.070693124" xlink:href="#mf1e9a9e4ae" y="280.8"/>
     <use style="fill:#0000ff;stroke:#000000;stroke-width:0.5;" x="339.948013896" xlink:href="#mf1e9a9e4ae" y="441.504"/>
     <use style="fill:#0000ff;stroke:#000000;stroke-width:0.5;" x="353.825334668" xlink:href="#mf1e9a9e4ae" y="352.224"/>
     <use style="fill:#0000ff;stroke:#000000;stroke-width:0.5;" x="367.702655441" xlink:href="#mf1e9a9e4ae" y="379.008"/>
     <use style="fill:#0000ff;stroke:#000000;stroke-width:0.5;" x="381.579976213" xlink:href="#mf1e9a9e4ae" y="396.864"/>
     <use style="fill:#0000ff;stroke:#000000;stroke-width:0.5;" x="395.457296985" xlink:href="#mf1e9a9e4ae" y="370.08"/>
     <use style="fill:#0000ff;stroke:#000000;stroke-width:0.5;" x="409.334617757" xlink:href="#mf1e9a9e4ae" y="441.504"/>
     <use style="fill:#0000ff;stroke:#000000;stroke-width:0.5;" x="423.211938529" xlink:href="#mf1e9a9e4ae" y="379.008"/>
     <use style="fill:#0000ff;stroke:#000000;stroke-width:0.5;" x="437.089259301" xlink:href="#mf1e9a9e4ae" y="379.008"/>
     <use style="fill:#0000ff;stroke:#000000;stroke-width:0.5;" x="450.966580073" xlink:href="#mf1e9a9e4ae" y="387.936"/>
     <use style="fill:#0000ff;stroke:#000000;stroke-width:0.5;" x="464.843900845" xlink:href="#mf1e9a9e4ae" y="414.72"/>
     <use style="fill:#0000ff;stroke:#000000;stroke-width:0.5;" x="478.721221617" xlink:href="#mf1e9a9e4ae" y="352.224"/>
     <use style="fill:#0000ff;stroke:#000000;stroke-width:0.5;" x="492.598542389" xlink:href="#mf1e9a9e4ae" y="343.296"/>
     <use style="fill:#0000ff;stroke:#000000;stroke-width:0.5;" x="506.475863161" xlink:href="#mf1e9a9e4ae" y="361.152"/>
     <use style="fill:#0000ff;stroke:#000000;stroke-width:0.5;" x="520.353183933" xlink:href="#mf1e9a9e4ae" y="343.296"/>
     <use style="fill:#0000ff;stroke:#000000;stroke-width:0.5;" x="534.230504705" xlink:href="#mf1e9a9e4ae" y="414.72"/>
     <use style="fill:#0000ff;stroke:#000000;stroke-width:0.5;" x="548.107825477" xlink:href="#mf1e9a9e4ae" y="468.288"/>
     <use style="fill:#0000ff;stroke:#000000;stroke-width:0.5;" x="561.985146249" xlink:href="#mf1e9a9e4ae" y="343.296"/>
     <use style="fill:#0000ff;stroke:#000000;stroke-width:0.5;" x="575.862467021" xlink:href="#mf1e9a9e4ae" y="370.08"/>
     <use style="fill:#0000ff;stroke:#000000;stroke-width:0.5;" x="589.739787793" xlink:href="#mf1e9a9e4ae" y="396.864"/>
     <use style="fill:#0000ff;stroke:#000000;stroke-width:0.5;" x="603.617108565" xlink:href="#mf1e9a9e4ae" y="387.936"/>
     <use style="fill:#0000ff;stroke:#000000;stroke-width:0.5;" x="617.494429337" xlink:href="#mf1e9a9e4ae" y="396.864"/>
     <use style="fill:#0000ff;stroke:#000000;stroke-width:0.5;" x="631.371750109" xlink:href="#mf1e9a9e4ae" y="387.936"/>
    </g>
   </g>
   <g id="patch_3">
    <path d="
M90 57.6
L648 57.6" style="fill:none;stroke:#000000;stroke-linecap:square;stroke-linejoin:miter;"/>
   </g>
   <g id="patch_4">
    <path d="
M648 504
L648 57.6" style="fill:none;stroke:#000000;stroke-linecap:square;stroke-linejoin:miter;"/>
   </g>
   <g id="patch_5">
    <path d="
M90 504
L648 504" style="fill:none;stroke:#000000;stroke-linecap:square;stroke-linejoin:miter;"/>
   </g>
   <g id="patch_6">
    <path d="
M90 504
L90 57.6" style="fill:none;stroke:#000000;stroke-linecap:square;stroke-linejoin:miter;"/>
   </g>
   <g id="matplotlib.axis_1">
    <g id="xtick_1">
     <g id="line2d_4">
      <defs>
       <path d="
M0 0
L0 -4" id="m93b0483c22" style="stroke:#000000;stroke-width:0.5;"/>
      </defs>
      <g>
       <use style="stroke:#000000;stroke-width:0.5;" x="90.0" xlink:href="#m93b0483c22" y="504.0"/>
      </g>
     </g>
     <g id="line2d_5">
      <defs>
       <path d="
M0 0
L0 4" id="m741efc42ff" style="stroke:#000000;stroke-width:0.5;"/>
      </defs>
      <g>
       <use style="stroke:#000000;stroke-width:0.5;" x="90.0" xlink:href="#m741efc42ff" y="57.6"/>
      </g>
     </g>
     <g id="text_1">
      <!-- 0 -->
      <defs>
       <path d="
M31.7812 66.4062
Q24.1719 66.4062 20.3281 58.9062
Q16.5 51.4219 16.5 36.375
Q16.5 21.3906 20.3281 13.8906
Q24.1719 6.39062 31.7812 6.39062
Q39.4531 6.39062 43.2812 13.8906
Q47.125 21.3906 47.125 36.375
Q47.125 51.4219 43.2812 58.9062
Q39.4531 66.4062 31.7812 66.4062
M31.7812 74.2188
Q44.0469 74.2188 50.5156 64.5156
Q56.9844 54.8281 56.9844 36.375
Q56.9844 17.9688 50.5156 8.26562
Q44.0469 -1.42188 31.7812 -1.42188
Q19.5312 -1.42188 13.0625 8.26562
Q6.59375 17.9688 6.59375 36.375
Q6.59375 54.8281 13.0625 64.5156
Q19.5312 74.2188 31.7812 74.2188" id="BitstreamVeraSans-Roman-30"/>
      </defs>
      <g transform="translate(83.953125 532.23625)scale(0.24 -0.24)">
       <use xlink:href="#BitstreamVeraSans-Roman-30"/>
      </g>
     </g>
    </g>
    <g id="xtick_2">
     <g id="line2d_6">
      <g>
       <use style="stroke:#000000;stroke-width:0.5;" x="201.6" xlink:href="#m93b0483c22" y="504.0"/>
      </g>
     </g>
     <g id="line2d_7">
      <g>
       <use style="stroke:#000000;stroke-width:0.5;" x="201.6" xlink:href="#m741efc42ff" y="57.6"/>
      </g>
     </g>
     <g id="text_2">
      <!-- 2000 -->
      <defs>
       <path d="
M19.1875 8.29688
L53.6094 8.29688
L53.6094 0
L7.32812 0
L7.32812 8.29688
Q12.9375 14.1094 22.625 23.8906
Q32.3281 33.6875 34.8125 36.5312
Q39.5469 41.8438 41.4219 45.5312
Q43.3125 49.2188 43.3125 52.7812
Q43.3125 58.5938 39.2344 62.25
Q35.1562 65.9219 28.6094 65.9219
Q23.9688 65.9219 18.8125 64.3125
Q13.6719 62.7031 7.8125 59.4219
L7.8125 69.3906
Q13.7656 71.7812 18.9375 73
Q24.125 74.2188 28.4219 74.2188
Q39.75 74.2188 46.4844 68.5469
Q53.2188 62.8906 53.2188 53.4219
Q53.2188 48.9219 51.5312 44.8906
Q49.8594 40.875 45.4062 35.4062
Q44.1875 33.9844 37.6406 27.2188
Q31.1094 20.4531 19.1875 8.29688" id="BitstreamVeraSans-Roman-32"/>
      </defs>
      <g transform="translate(172.73625 532.23625)scale(0.24 -0.24)">
       <use xlink:href="#BitstreamVeraSans-Roman-32"/>
       <use x="63.623046875" xlink:href="#BitstreamVeraSans-Roman-30"/>
       <use x="127.24609375" xlink:href="#BitstreamVeraSans-Roman-30"/>
       <use x="190.869140625" xlink:href="#BitstreamVeraSans-Roman-30"/>
      </g>
     </g>
    </g>
    <g id="xtick_3">
     <g id="line2d_8">
      <g>
       <use style="stroke:#000000;stroke-width:0.5;" x="313.2" xlink:href="#m93b0483c22" y="504.0"/>
      </g>
     </g>
     <g id="line2d_9">
      <g>
       <use style="stroke:#000000;stroke-width:0.5;" x="313.2" xlink:href="#m741efc42ff" y="57.6"/>
      </g>
     </g>
     <g id="text_3">
      <!-- 4000 -->
      <defs>
       <path d="
M37.7969 64.3125
L12.8906 25.3906
L37.7969 25.3906
z

M35.2031 72.9062
L47.6094 72.9062
L47.6094 25.3906
L58.0156 25.3906
L58.0156 17.1875
L47.6094 17.1875
L47.6094 0
L37.7969 0
L37.7969 17.1875
L4.89062 17.1875
L4.89062 26.7031
z
" id="BitstreamVeraSans-Roman-34"/>
      </defs>
      <g transform="translate(284.04375 532.23625)scale(0.24 -0.24)">
       <use xlink:href="#BitstreamVeraSans-Roman-34"/>
       <use x="63.623046875" xlink:href="#BitstreamVeraSans-Roman-30"/>
       <use x="127.24609375" xlink:href="#BitstreamVeraSans-Roman-30"/>
       <use x="190.869140625" xlink:href="#BitstreamVeraSans-Roman-30"/>
      </g>
     </g>
    </g>
    <g id="xtick_4">
     <g id="line2d_10">
      <g>
       <use style="stroke:#000000;stroke-width:0.5;" x="424.8" xlink:href="#m93b0483c22" y="504.0"/>
      </g>
     </g>
     <g id="line2d_11">
      <g>
       <use style="stroke:#000000;stroke-width:0.5;" x="424.8" xlink:href="#m741efc42ff" y="57.6"/>
      </g>
     </g>
     <g id="text_4">
      <!-- 6000 -->
      <defs>
       <path d="
M33.0156 40.375
Q26.375 40.375 22.4844 35.8281
Q18.6094 31.2969 18.6094 23.3906
Q18.6094 15.5312 22.4844 10.9531
Q26.375 6.39062 33.0156 6.39062
Q39.6562 6.39062 43.5312 10.9531
Q47.4062 15.5312 47.4062 23.3906
Q47.4062 31.2969 43.5312 35.8281
Q39.6562 40.375 33.0156 40.375
M52.5938 71.2969
L52.5938 62.3125
Q48.875 64.0625 45.0938 64.9844
Q41.3125 65.9219 37.5938 65.9219
Q27.8281 65.9219 22.6719 59.3281
Q17.5312 52.7344 16.7969 39.4062
Q19.6719 43.6562 24.0156 45.9219
Q28.375 48.1875 33.5938 48.1875
Q44.5781 48.1875 50.9531 41.5156
Q57.3281 34.8594 57.3281 23.3906
Q57.3281 12.1562 50.6875 5.35938
Q44.0469 -1.42188 33.0156 -1.42188
Q20.3594 -1.42188 13.6719 8.26562
Q6.98438 17.9688 6.98438 36.375
Q6.98438 53.6562 15.1875 63.9375
Q23.3906 74.2188 37.2031 74.2188
Q40.9219 74.2188 44.7031 73.4844
Q48.4844 72.75 52.5938 71.2969" id="BitstreamVeraSans-Roman-36"/>
      </defs>
      <g transform="translate(395.895 532.23625)scale(0.24 -0.24)">
       <use xlink:href="#BitstreamVeraSans-Roman-36"/>
       <use x="63.623046875" xlink:href="#BitstreamVeraSans-Roman-30"/>
       <use x="127.24609375" xlink:href="#BitstreamVeraSans-Roman-30"/>
       <use x="190.869140625" xlink:href="#BitstreamVeraSans-Roman-30"/>
      </g>
     </g>
    </g>
    <g id="xtick_5">
     <g id="line2d_12">
      <g>
       <use style="stroke:#000000;stroke-width:0.5;" x="536.4" xlink:href="#m93b0483c22" y="504.0"/>
      </g>
     </g>
     <g id="line2d_13">
      <g>
       <use style="stroke:#000000;stroke-width:0.5;" x="536.4" xlink:href="#m741efc42ff" y="57.6"/>
      </g>
     </g>
     <g id="text_5">
      <!-- 8000 -->
      <defs>
       <path d="
M31.7812 34.625
Q24.75 34.625 20.7188 30.8594
Q16.7031 27.0938 16.7031 20.5156
Q16.7031 13.9219 20.7188 10.1562
Q24.75 6.39062 31.7812 6.39062
Q38.8125 6.39062 42.8594 10.1719
Q46.9219 13.9688 46.9219 20.5156
Q46.9219 27.0938 42.8906 30.8594
Q38.875 34.625 31.7812 34.625
M21.9219 38.8125
Q15.5781 40.375 12.0312 44.7188
Q8.5 49.0781 8.5 55.3281
Q8.5 64.0625 14.7188 69.1406
Q20.9531 74.2188 31.7812 74.2188
Q42.6719 74.2188 48.875 69.1406
Q55.0781 64.0625 55.0781 55.3281
Q55.0781 49.0781 51.5312 44.7188
Q48 40.375 41.7031 38.8125
Q48.8281 37.1562 52.7969 32.3125
Q56.7812 27.4844 56.7812 20.5156
Q56.7812 9.90625 50.3125 4.23438
Q43.8438 -1.42188 31.7812 -1.42188
Q19.7344 -1.42188 13.25 4.23438
Q6.78125 9.90625 6.78125 20.5156
Q6.78125 27.4844 10.7812 32.3125
Q14.7969 37.1562 21.9219 38.8125
M18.3125 54.3906
Q18.3125 48.7344 21.8438 45.5625
Q25.3906 42.3906 31.7812 42.3906
Q38.1406 42.3906 41.7188 45.5625
Q45.3125 48.7344 45.3125 54.3906
Q45.3125 60.0625 41.7188 63.2344
Q38.1406 66.4062 31.7812 66.4062
Q25.3906 66.4062 21.8438 63.2344
Q18.3125 60.0625 18.3125 54.3906" id="BitstreamVeraSans-Roman-38"/>
      </defs>
      <g transform="translate(507.470625 532.23625)scale(0.24 -0.24)">
       <use xlink:href="#BitstreamVeraSans-Roman-38"/>
       <use x="63.623046875" xlink:href="#BitstreamVeraSans-Roman-30"/>
       <use x="127.24609375" xlink:href="#BitstreamVeraSans-Roman-30"/>
       <use x="190.869140625" xlink:href="#BitstreamVeraSans-Roman-30"/>
      </g>
     </g>
    </g>
    <g id="xtick_6">
     <g id="line2d_14">
      <g>
       <use style="stroke:#000000;stroke-width:0.5;" x="648.0" xlink:href="#m93b0483c22" y="504.0"/>
      </g>
     </g>
     <g id="line2d_15">
      <g>
       <use style="stroke:#000000;stroke-width:0.5;" x="648.0" xlink:href="#m741efc42ff" y="57.6"/>
      </g>
     </g>
     <g id="text_6">
      <!-- 10000 -->
      <defs>
       <path d="
M12.4062 8.29688
L28.5156 8.29688
L28.5156 63.9219
L10.9844 60.4062
L10.9844 69.3906
L28.4219 72.9062
L38.2812 72.9062
L38.2812 8.29688
L54.3906 8.29688
L54.3906 0
L12.4062 0
z
" id="BitstreamVeraSans-Roman-31"/>
      </defs>
      <g transform="translate(611.94 532.23625)scale(0.24 -0.24)">
       <use xlink:href="#BitstreamVeraSans-Roman-31"/>
       <use x="63.623046875" xlink:href="#BitstreamVeraSans-Roman-30"/>
       <use x="127.24609375" xlink:href="#BitstreamVeraSans-Roman-30"/>
       <use x="190.869140625" xlink:href="#BitstreamVeraSans-Roman-30"/>
       <use x="254.4921875" xlink:href="#BitstreamVeraSans-Roman-30"/>
      </g>
     </g>
    </g>
    <g id="text_7">
     <!-- t (ms) -->
     <defs>
      <path id="BitstreamVeraSans-Roman-20"/>
      <path d="
M8.01562 75.875
L15.8281 75.875
Q23.1406 64.3594 26.7812 53.3125
Q30.4219 42.2812 30.4219 31.3906
Q30.4219 20.4531 26.7812 9.375
Q23.1406 -1.70312 15.8281 -13.1875
L8.01562 -13.1875
Q14.5 -2 17.7031 9.0625
Q20.9062 20.125 20.9062 31.3906
Q20.9062 42.6719 17.7031 53.6562
Q14.5 64.6562 8.01562 75.875" id="BitstreamVeraSans-Roman-29"/>
      <path d="
M52 44.1875
Q55.375 50.25 60.0625 53.125
Q64.75 56 71.0938 56
Q79.6406 56 84.2812 50.0156
Q88.9219 44.0469 88.9219 33.0156
L88.9219 0
L79.8906 0
L79.8906 32.7188
Q79.8906 40.5781 77.0938 44.375
Q74.3125 48.1875 68.6094 48.1875
Q61.625 48.1875 57.5625 43.5469
Q53.5156 38.9219 53.5156 30.9062
L53.5156 0
L44.4844 0
L44.4844 32.7188
Q44.4844 40.625 41.7031 44.4062
Q38.9219 48.1875 33.1094 48.1875
Q26.2188 48.1875 22.1562 43.5312
Q18.1094 38.875 18.1094 30.9062
L18.1094 0
L9.07812 0
L9.07812 54.6875
L18.1094 54.6875
L18.1094 46.1875
Q21.1875 51.2188 25.4844 53.6094
Q29.7812 56 35.6875 56
Q41.6562 56 45.8281 52.9688
Q50 49.9531 52 44.1875" id="BitstreamVeraSans-Roman-6d"/>
      <path d="
M31 75.875
Q24.4688 64.6562 21.2812 53.6562
Q18.1094 42.6719 18.1094 31.3906
Q18.1094 20.125 21.3125 9.0625
Q24.5156 -2 31 -13.1875
L23.1875 -13.1875
Q15.875 -1.70312 12.2344 9.375
Q8.59375 20.4531 8.59375 31.3906
Q8.59375 42.2812 12.2031 53.3125
Q15.8281 64.3594 23.1875 75.875
z
" id="BitstreamVeraSans-Roman-28"/>
      <path d="
M18.3125 70.2188
L18.3125 54.6875
L36.8125 54.6875
L36.8125 47.7031
L18.3125 47.7031
L18.3125 18.0156
Q18.3125 11.3281 20.1406 9.42188
Q21.9688 7.51562 27.5938 7.51562
L36.8125 7.51562
L36.8125 0
L27.5938 0
Q17.1875 0 13.2344 3.875
Q9.28125 7.76562 9.28125 18.0156
L9.28125 47.7031
L2.6875 47.7031
L2.6875 54.6875
L9.28125 54.6875
L9.28125 70.2188
z
" id="BitstreamVeraSans-Roman-74"/>
      <path d="
M44.2812 53.0781
L44.2812 44.5781
Q40.4844 46.5312 36.375 47.5
Q32.2812 48.4844 27.875 48.4844
Q21.1875 48.4844 17.8438 46.4375
Q14.5 44.3906 14.5 40.2812
Q14.5 37.1562 16.8906 35.375
Q19.2812 33.5938 26.5156 31.9844
L29.5938 31.2969
Q39.1562 29.25 43.1875 25.5156
Q47.2188 21.7812 47.2188 15.0938
Q47.2188 7.46875 41.1875 3.01562
Q35.1562 -1.42188 24.6094 -1.42188
Q20.2188 -1.42188 15.4531 -0.5625
Q10.6875 0.296875 5.42188 2
L5.42188 11.2812
Q10.4062 8.6875 15.2344 7.39062
Q20.0625 6.10938 24.8125 6.10938
Q31.1562 6.10938 34.5625 8.28125
Q37.9844 10.4531 37.9844 14.4062
Q37.9844 18.0625 35.5156 20.0156
Q33.0625 21.9688 24.7031 23.7812
L21.5781 24.5156
Q13.2344 26.2656 9.51562 29.9062
Q5.8125 33.5469 5.8125 39.8906
Q5.8125 47.6094 11.2812 51.7969
Q16.75 56 26.8125 56
Q31.7812 56 36.1719 55.2656
Q40.5781 54.5469 44.2812 53.0781" id="BitstreamVeraSans-Roman-73"/>
     </defs>
     <g transform="translate(334.209375 560.46375)scale(0.24 -0.24)">
      <use xlink:href="#BitstreamVeraSans-Roman-74"/>
      <use x="39.208984375" xlink:href="#BitstreamVeraSans-Roman-20"/>
      <use x="70.99609375" xlink:href="#BitstreamVeraSans-Roman-28"/>
      <use x="110.009765625" xlink:href="#BitstreamVeraSans-Roman-6d"/>
      <use x="207.421875" xlink:href="#BitstreamVeraSans-Roman-73"/>
      <use x="259.521484375" xlink:href="#BitstreamVeraSans-Roman-29"/>
     </g>
    </g>
   </g>
   <g id="matplotlib.axis_2">
    <g id="ytick_1">
     <g id="line2d_16">
      <defs>
       <path d="
M0 0
L4 0" id="m728421d6d4" style="stroke:#000000;stroke-width:0.5;"/>
      </defs>
      <g>
       <use style="stroke:#000000;stroke-width:0.5;" x="90.0" xlink:href="#m728421d6d4" y="504.0"/>
      </g>
     </g>
     <g id="line2d_17">
      <defs>
       <path d="
M0 0
L-4 0" id="mcb0005524f" style="stroke:#000000;stroke-width:0.5;"/>
      </defs>
      <g>
       <use style="stroke:#000000;stroke-width:0.5;" x="648.0" xlink:href="#mcb0005524f" y="504.0"/>
      </g>
     </g>
     <g id="text_8">
      <!-- 0 -->
      <g transform="translate(67.90625 510.6225)scale(0.24 -0.24)">
       <use xlink:href="#BitstreamVeraSans-Roman-30"/>
      </g>
     </g>
    </g>
    <g id="ytick_2">
     <g id="line2d_18">
      <g>
       <use style="stroke:#000000;stroke-width:0.5;" x="90.0" xlink:href="#m728421d6d4" y="414.72"/>
      </g>
     </g>
     <g id="line2d_19">
      <g>
       <use style="stroke:#000000;stroke-width:0.5;" x="648.0" xlink:href="#mcb0005524f" y="414.72"/>
      </g>
     </g>
     <g id="text_9">
      <!-- 10 -->
      <g transform="translate(53.69 421.3425)scale(0.24 -0.24)">
       <use xlink:href="#BitstreamVeraSans-Roman-31"/>
       <use x="63.623046875" xlink:href="#BitstreamVeraSans-Roman-30"/>
      </g>
     </g>
    </g>
    <g id="ytick_3">
     <g id="line2d_20">
      <g>
       <use style="stroke:#000000;stroke-width:0.5;" x="90.0" xlink:href="#m728421d6d4" y="325.44"/>
      </g>
     </g>
     <g id="line2d_21">
      <g>
       <use style="stroke:#000000;stroke-width:0.5;" x="648.0" xlink:href="#mcb0005524f" y="325.44"/>
      </g>
     </g>
     <g id="text_10">
      <!-- 20 -->
      <g transform="translate(52.8125 332.0625)scale(0.24 -0.24)">
       <use xlink:href="#BitstreamVeraSans-Roman-32"/>
       <use x="63.623046875" xlink:href="#BitstreamVeraSans-Roman-30"/>
      </g>
     </g>
    </g>
    <g id="ytick_4">
     <g id="line2d_22">
      <g>
       <use style="stroke:#000000;stroke-width:0.5;" x="90.0" xlink:href="#m728421d6d4" y="236.16"/>
      </g>
     </g>
     <g id="line2d_23">
      <g>
       <use style="stroke:#000000;stroke-width:0.5;" x="648.0" xlink:href="#mcb0005524f" y="236.16"/>
      </g>
     </g>
     <g id="text_11">
      <!-- 30 -->
      <defs>
       <path d="
M40.5781 39.3125
Q47.6562 37.7969 51.625 33
Q55.6094 28.2188 55.6094 21.1875
Q55.6094 10.4062 48.1875 4.48438
Q40.7656 -1.42188 27.0938 -1.42188
Q22.5156 -1.42188 17.6562 -0.515625
Q12.7969 0.390625 7.625 2.20312
L7.625 11.7188
Q11.7188 9.32812 16.5938 8.10938
Q21.4844 6.89062 26.8125 6.89062
Q36.0781 6.89062 40.9375 10.5469
Q45.7969 14.2031 45.7969 21.1875
Q45.7969 27.6406 41.2812 31.2656
Q36.7656 34.9062 28.7188 34.9062
L20.2188 34.9062
L20.2188 43.0156
L29.1094 43.0156
Q36.375 43.0156 40.2344 45.9219
Q44.0938 48.8281 44.0938 54.2969
Q44.0938 59.9062 40.1094 62.9062
Q36.1406 65.9219 28.7188 65.9219
Q24.6562 65.9219 20.0156 65.0312
Q15.375 64.1562 9.8125 62.3125
L9.8125 71.0938
Q15.4375 72.6562 20.3438 73.4375
Q25.25 74.2188 29.5938 74.2188
Q40.8281 74.2188 47.3594 69.1094
Q53.9062 64.0156 53.9062 55.3281
Q53.9062 49.2656 50.4375 45.0938
Q46.9688 40.9219 40.5781 39.3125" id="BitstreamVeraSans-Roman-33"/>
      </defs>
      <g transform="translate(52.88375 242.7825)scale(0.24 -0.24)">
       <use xlink:href="#BitstreamVeraSans-Roman-33"/>
       <use x="63.623046875" xlink:href="#BitstreamVeraSans-Roman-30"/>
      </g>
     </g>
    </g>
    <g id="ytick_5">
     <g id="line2d_24">
      <g>
       <use style="stroke:#000000;stroke-width:0.5;" x="90.0" xlink:href="#m728421d6d4" y="146.88"/>
      </g>
     </g>
     <g id="line2d_25">
      <g>
       <use style="stroke:#000000;stroke-width:0.5;" x="648.0" xlink:href="#mcb0005524f" y="146.88"/>
      </g>
     </g>
     <g id="text_12">
      <!-- 40 -->
      <g transform="translate(52.2275 153.5025)scale(0.24 -0.24)">
       <use xlink:href="#BitstreamVeraSans-Roman-34"/>
       <use x="63.623046875" xlink:href="#BitstreamVeraSans-Roman-30"/>
      </g>
     </g>
    </g>
    <g id="ytick_6">
     <g id="line2d_26">
      <g>
       <use style="stroke:#000000;stroke-width:0.5;" x="90.0" xlink:href="#m728421d6d4" y="57.6"/>
      </g>
     </g>
     <g id="line2d_27">
      <g>
       <use style="stroke:#000000;stroke-width:0.5;" x="648.0" xlink:href="#mcb0005524f" y="57.6"/>
      </g>
     </g>
     <g id="text_13">
      <!-- 50 -->
      <defs>
       <path d="
M10.7969 72.9062
L49.5156 72.9062
L49.5156 64.5938
L19.8281 64.5938
L19.8281 46.7344
Q21.9688 47.4688 24.1094 47.8281
Q26.2656 48.1875 28.4219 48.1875
Q40.625 48.1875 47.75 41.5
Q54.8906 34.8125 54.8906 23.3906
Q54.8906 11.625 47.5625 5.09375
Q40.2344 -1.42188 26.9062 -1.42188
Q22.3125 -1.42188 17.5469 -0.640625
Q12.7969 0.140625 7.71875 1.70312
L7.71875 11.625
Q12.1094 9.23438 16.7969 8.0625
Q21.4844 6.89062 26.7031 6.89062
Q35.1562 6.89062 40.0781 11.3281
Q45.0156 15.7656 45.0156 23.3906
Q45.0156 31 40.0781 35.4375
Q35.1562 39.8906 26.7031 39.8906
Q22.75 39.8906 18.8125 39.0156
Q14.8906 38.1406 10.7969 36.2812
z
" id="BitstreamVeraSans-Roman-35"/>
      </defs>
      <g transform="translate(52.90625 64.2225)scale(0.24 -0.24)">
       <use xlink:href="#BitstreamVeraSans-Roman-35"/>
       <use x="63.623046875" xlink:href="#BitstreamVeraSans-Roman-30"/>
      </g>
     </g>
    </g>
    <g id="text_14">
     <!-- mean neuronal firing rate (s$^{-1}$) -->
     <defs>
      <path d="
M9.28125 0
L9.28125 3.51562
Q21.7812 3.51562 21.7812 6.6875
L21.7812 59.1875
Q16.6094 56.6875 8.6875 56.6875
L8.6875 60.2031
Q20.9531 60.2031 27.2031 66.6094
L28.6094 66.6094
Q28.9531 66.6094 29.2656 66.3281
Q29.5938 66.0625 29.5938 65.7188
L29.5938 6.6875
Q29.5938 3.51562 42.0938 3.51562
L42.0938 0
z
" id="Cmr10-31"/>
      <path d="
M37.1094 75.9844
L37.1094 68.5
L28.5156 68.5
Q23.6875 68.5 21.7969 66.5469
Q19.9219 64.5938 19.9219 59.5156
L19.9219 54.6875
L34.7188 54.6875
L34.7188 47.7031
L19.9219 47.7031
L19.9219 0
L10.8906 0
L10.8906 47.7031
L2.29688 47.7031
L2.29688 54.6875
L10.8906 54.6875
L10.8906 58.5
Q10.8906 67.625 15.1406 71.7969
Q19.3906 75.9844 28.6094 75.9844
z
" id="BitstreamVeraSans-Roman-66"/>
      <path d="
M54.8906 33.0156
L54.8906 0
L45.9062 0
L45.9062 32.7188
Q45.9062 40.4844 42.875 44.3281
Q39.8438 48.1875 33.7969 48.1875
Q26.5156 48.1875 22.3125 43.5469
Q18.1094 38.9219 18.1094 30.9062
L18.1094 0
L9.07812 0
L9.07812 54.6875
L18.1094 54.6875
L18.1094 46.1875
Q21.3438 51.125 25.7031 53.5625
Q30.0781 56 35.7969 56
Q45.2188 56 50.0469 50.1719
Q54.8906 44.3438 54.8906 33.0156" id="BitstreamVeraSans-Roman-6e"/>
      <path d="
M41.1094 46.2969
Q39.5938 47.1719 37.8125 47.5781
Q36.0312 48 33.8906 48
Q26.2656 48 22.1875 43.0469
Q18.1094 38.0938 18.1094 28.8125
L18.1094 0
L9.07812 0
L9.07812 54.6875
L18.1094 54.6875
L18.1094 46.1875
Q20.9531 51.1719 25.4844 53.5781
Q30.0312 56 36.5312 56
Q37.4531 56 38.5781 55.875
Q39.7031 55.7656 41.0625 55.5156
z
" id="BitstreamVeraSans-Roman-72"/>
      <path d="
M30.6094 48.3906
Q23.3906 48.3906 19.1875 42.75
Q14.9844 37.1094 14.9844 27.2969
Q14.9844 17.4844 19.1562 11.8438
Q23.3438 6.20312 30.6094 6.20312
Q37.7969 6.20312 41.9844 11.8594
Q46.1875 17.5312 46.1875 27.2969
Q46.1875 37.0156 41.9844 42.7031
Q37.7969 48.3906 30.6094 48.3906
M30.6094 56
Q42.3281 56 49.0156 48.375
Q55.7188 40.7656 55.7188 27.2969
Q55.7188 13.875 49.0156 6.21875
Q42.3281 -1.42188 30.6094 -1.42188
Q18.8438 -1.42188 12.1719 6.21875
Q5.51562 13.875 5.51562 27.2969
Q5.51562 40.7656 12.1719 48.375
Q18.8438 56 30.6094 56" id="BitstreamVeraSans-Roman-6f"/>
      <path d="
M9.42188 75.9844
L18.4062 75.9844
L18.4062 0
L9.42188 0
z
" id="BitstreamVeraSans-Roman-6c"/>
      <path d="
M10.2031 23
Q9.375 23 8.82812 23.625
Q8.29688 24.2656 8.29688 25
Q8.29688 25.7344 8.82812 26.3594
Q9.375 27 10.2031 27
L67.5781 27
Q68.3594 27 68.875 26.3594
Q69.3906 25.7344 69.3906 25
Q69.3906 24.2656 68.875 23.625
Q68.3594 23 67.5781 23
z
" id="Cmsy10-a1"/>
      <path d="
M9.42188 54.6875
L18.4062 54.6875
L18.4062 0
L9.42188 0
z

M9.42188 75.9844
L18.4062 75.9844
L18.4062 64.5938
L9.42188 64.5938
z
" id="BitstreamVeraSans-Roman-69"/>
      <path d="
M56.2031 29.5938
L56.2031 25.2031
L14.8906 25.2031
Q15.4844 15.9219 20.4844 11.0625
Q25.4844 6.20312 34.4219 6.20312
Q39.5938 6.20312 44.4531 7.46875
Q49.3125 8.73438 54.1094 11.2812
L54.1094 2.78125
Q49.2656 0.734375 44.1875 -0.34375
Q39.1094 -1.42188 33.8906 -1.42188
Q20.7969 -1.42188 13.1562 6.1875
Q5.51562 13.8125 5.51562 26.8125
Q5.51562 40.2344 12.7656 48.1094
Q20.0156 56 32.3281 56
Q43.3594 56 49.7812 48.8906
Q56.2031 41.7969 56.2031 29.5938
M47.2188 32.2344
Q47.125 39.5938 43.0938 43.9844
Q39.0625 48.3906 32.4219 48.3906
Q24.9062 48.3906 20.3906 44.1406
Q15.875 39.8906 15.1875 32.1719
z
" id="BitstreamVeraSans-Roman-65"/>
      <path d="
M45.4062 27.9844
Q45.4062 37.75 41.375 43.1094
Q37.3594 48.4844 30.0781 48.4844
Q22.8594 48.4844 18.8281 43.1094
Q14.7969 37.75 14.7969 27.9844
Q14.7969 18.2656 18.8281 12.8906
Q22.8594 7.51562 30.0781 7.51562
Q37.3594 7.51562 41.375 12.8906
Q45.4062 18.2656 45.4062 27.9844
M54.3906 6.78125
Q54.3906 -7.17188 48.1875 -13.9844
Q42 -20.7969 29.2031 -20.7969
Q24.4688 -20.7969 20.2656 -20.0938
Q16.0625 -19.3906 12.1094 -17.9219
L12.1094 -9.1875
Q16.0625 -11.3281 19.9219 -12.3438
Q23.7812 -13.375 27.7812 -13.375
Q36.625 -13.375 41.0156 -8.76562
Q45.4062 -4.15625 45.4062 5.17188
L45.4062 9.625
Q42.625 4.78125 38.2812 2.39062
Q33.9375 0 27.875 0
Q17.8281 0 11.6719 7.65625
Q5.51562 15.3281 5.51562 27.9844
Q5.51562 40.6719 11.6719 48.3281
Q17.8281 56 27.875 56
Q33.9375 56 38.2812 53.6094
Q42.625 51.2188 45.4062 46.3906
L45.4062 54.6875
L54.3906 54.6875
z
" id="BitstreamVeraSans-Roman-67"/>
      <path d="
M8.5 21.5781
L8.5 54.6875
L17.4844 54.6875
L17.4844 21.9219
Q17.4844 14.1562 20.5 10.2656
Q23.5312 6.39062 29.5938 6.39062
Q36.8594 6.39062 41.0781 11.0312
Q45.3125 15.6719 45.3125 23.6875
L45.3125 54.6875
L54.2969 54.6875
L54.2969 0
L45.3125 0
L45.3125 8.40625
Q42.0469 3.42188 37.7188 1
Q33.4062 -1.42188 27.6875 -1.42188
Q18.2656 -1.42188 13.375 4.4375
Q8.5 10.2969 8.5 21.5781" id="BitstreamVeraSans-Roman-75"/>
      <path d="
M34.2812 27.4844
Q23.3906 27.4844 19.1875 25
Q14.9844 22.5156 14.9844 16.5
Q14.9844 11.7188 18.1406 8.90625
Q21.2969 6.10938 26.7031 6.10938
Q34.1875 6.10938 38.7031 11.4062
Q43.2188 16.7031 43.2188 25.4844
L43.2188 27.4844
z

M52.2031 31.2031
L52.2031 0
L43.2188 0
L43.2188 8.29688
Q40.1406 3.32812 35.5469 0.953125
Q30.9531 -1.42188 24.3125 -1.42188
Q15.9219 -1.42188 10.9531 3.29688
Q6 8.01562 6 15.9219
Q6 25.1406 12.1719 29.8281
Q18.3594 34.5156 30.6094 34.5156
L43.2188 34.5156
L43.2188 35.4062
Q43.2188 41.6094 39.1406 45
Q35.0625 48.3906 27.6875 48.3906
Q23 48.3906 18.5469 47.2656
Q14.1094 46.1406 10.0156 43.8906
L10.0156 52.2031
Q14.9375 54.1094 19.5781 55.0469
Q24.2188 56 28.6094 56
Q40.4844 56 46.3438 49.8438
Q52.2031 43.7031 52.2031 31.2031" id="BitstreamVeraSans-Roman-61"/>
     </defs>
     <g transform="translate(42.1875 467.16)rotate(-90.0)scale(0.24 -0.24)">
      <use transform="translate(0.0 0.8578125)" xlink:href="#BitstreamVeraSans-Roman-6d"/>
      <use transform="translate(97.412109375 0.8578125)" xlink:href="#BitstreamVeraSans-Roman-65"/>
      <use transform="translate(158.935546875 0.8578125)" xlink:href="#BitstreamVeraSans-Roman-61"/>
      <use transform="translate(220.21484375 0.8578125)" xlink:href="#BitstreamVeraSans-Roman-6e"/>
      <use transform="translate(283.59375 0.8578125)" xlink:href="#BitstreamVeraSans-Roman-20"/>
      <use transform="translate(315.380859375 0.8578125)" xlink:href="#BitstreamVeraSans-Roman-6e"/>
      <use transform="translate(378.759765625 0.8578125)" xlink:href="#BitstreamVeraSans-Roman-65"/>
      <use transform="translate(440.283203125 0.8578125)" xlink:href="#BitstreamVeraSans-Roman-75"/>
      <use transform="translate(503.662109375 0.8578125)" xlink:href="#BitstreamVeraSans-Roman-72"/>
      <use transform="translate(544.775390625 0.8578125)" xlink:href="#BitstreamVeraSans-Roman-6f"/>
      <use transform="translate(605.95703125 0.8578125)" xlink:href="#BitstreamVeraSans-Roman-6e"/>
      <use transform="translate(669.3359375 0.8578125)" xlink:href="#BitstreamVeraSans-Roman-61"/>
      <use transform="translate(730.615234375 0.8578125)" xlink:href="#BitstreamVeraSans-Roman-6c"/>
      <use transform="translate(758.3984375 0.8578125)" xlink:href="#BitstreamVeraSans-Roman-20"/>
      <use transform="translate(790.185546875 0.8578125)" xlink:href="#BitstreamVeraSans-Roman-66"/>
      <use transform="translate(825.390625 0.8578125)" xlink:href="#BitstreamVeraSans-Roman-69"/>
      <use transform="translate(853.173828125 0.8578125)" xlink:href="#BitstreamVeraSans-Roman-72"/>
      <use transform="translate(894.287109375 0.8578125)" xlink:href="#BitstreamVeraSans-Roman-69"/>
      <use transform="translate(922.0703125 0.8578125)" xlink:href="#BitstreamVeraSans-Roman-6e"/>
      <use transform="translate(985.44921875 0.8578125)" xlink:href="#BitstreamVeraSans-Roman-67"/>
      <use transform="translate(1048.92578125 0.8578125)" xlink:href="#BitstreamVeraSans-Roman-20"/>
      <use transform="translate(1080.71289062 0.8578125)" xlink:href="#BitstreamVeraSans-Roman-72"/>
      <use transform="translate(1121.82617188 0.8578125)" xlink:href="#BitstreamVeraSans-Roman-61"/>
      <use transform="translate(1183.10546875 0.8578125)" xlink:href="#BitstreamVeraSans-Roman-74"/>
      <use transform="translate(1222.31445312 0.8578125)" xlink:href="#BitstreamVeraSans-Roman-65"/>
      <use transform="translate(1283.83789062 0.8578125)" xlink:href="#BitstreamVeraSans-Roman-20"/>
      <use transform="translate(1315.625 0.8578125)" xlink:href="#BitstreamVeraSans-Roman-28"/>
      <use transform="translate(1354.63867188 0.8578125)" xlink:href="#BitstreamVeraSans-Roman-73"/>
      <use transform="translate(1406.73828125 43.3734375)scale(0.7)" xlink:href="#Cmsy10-a1"/>
      <use transform="translate(1461.11816406 43.3734375)scale(0.7)" xlink:href="#Cmr10-31"/>
      <use transform="translate(1513.12441406 0.8578125)" xlink:href="#BitstreamVeraSans-Roman-29"/>
     </g>
    </g>
   </g>
   <g id="text_15">
    <!-- SNr firing rates -->
    <defs>
     <path d="
M9.8125 72.9062
L23.0938 72.9062
L55.4219 11.9219
L55.4219 72.9062
L64.9844 72.9062
L64.9844 0
L51.7031 0
L19.3906 60.9844
L19.3906 0
L9.8125 0
z
" id="BitstreamVeraSans-Roman-4e"/>
     <path d="
M53.5156 70.5156
L53.5156 60.8906
Q47.9062 63.5781 42.9219 64.8906
Q37.9375 66.2188 33.2969 66.2188
Q25.25 66.2188 20.875 63.0938
Q16.5 59.9688 16.5 54.2031
Q16.5 49.3594 19.4062 46.8906
Q22.3125 44.4375 30.4219 42.9219
L36.375 41.7031
Q47.4062 39.5938 52.6562 34.2969
Q57.9062 29 57.9062 20.125
Q57.9062 9.51562 50.7969 4.04688
Q43.7031 -1.42188 29.9844 -1.42188
Q24.8125 -1.42188 18.9688 -0.25
Q13.1406 0.921875 6.89062 3.21875
L6.89062 13.375
Q12.8906 10.0156 18.6562 8.29688
Q24.4219 6.59375 29.9844 6.59375
Q38.4219 6.59375 43.0156 9.90625
Q47.6094 13.2344 47.6094 19.3906
Q47.6094 24.75 44.3125 27.7812
Q41.0156 30.8125 33.5 32.3281
L27.4844 33.5
Q16.4531 35.6875 11.5156 40.375
Q6.59375 45.0625 6.59375 53.4219
Q6.59375 63.0938 13.4062 68.6562
Q20.2188 74.2188 32.1719 74.2188
Q37.3125 74.2188 42.625 73.2812
Q47.9531 72.3594 53.5156 70.5156" id="BitstreamVeraSans-Roman-53"/>
    </defs>
    <g transform="translate(278.754375 52.6)scale(0.24 -0.24)">
     <use xlink:href="#BitstreamVeraSans-Roman-53"/>
     <use x="63.4765625" xlink:href="#BitstreamVeraSans-Roman-4e"/>
     <use x="138.28125" xlink:href="#BitstreamVeraSans-Roman-72"/>
     <use x="179.39453125" xlink:href="#BitstreamVeraSans-Roman-20"/>
     <use x="211.181640625" xlink:href="#BitstreamVeraSans-Roman-66"/>
     <use x="246.38671875" xlink:href="#BitstreamVeraSans-Roman-69"/>
     <use x="274.169921875" xlink:href="#BitstreamVeraSans-Roman-72"/>
     <use x="315.283203125" xlink:href="#BitstreamVeraSans-Roman-69"/>
     <use x="343.06640625" xlink:href="#BitstreamVeraSans-Roman-6e"/>
     <use x="406.4453125" xlink:href="#BitstreamVeraSans-Roman-67"/>
     <use x="469.921875" xlink:href="#BitstreamVeraSans-Roman-20"/>
     <use x="501.708984375" xlink:href="#BitstreamVeraSans-Roman-72"/>
     <use x="542.822265625" xlink:href="#BitstreamVeraSans-Roman-61"/>
     <use x="604.1015625" xlink:href="#BitstreamVeraSans-Roman-74"/>
     <use x="643.310546875" xlink:href="#BitstreamVeraSans-Roman-65"/>
     <use x="704.833984375" xlink:href="#BitstreamVeraSans-Roman-73"/>
    </g>
   </g>
   <g id="legend_1">
    <g id="patch_7">
     <path d="
M520.889 130.448
L641 130.448
L641 64.6
L520.889 64.6
L520.889 130.448" style="fill:none;stroke:#000000;stroke-linejoin:miter;"/>
    </g>
    <g id="line2d_28">
     <path d="
M530.689 75.9378
L550.289 75.9378" style="fill:none;stroke:#bfbf00;stroke-dasharray:6.000000,6.000000;stroke-dashoffset:0.0;stroke-width:3;"/>
    </g>
    <g id="line2d_29">
     <g>
      <use style="fill:#bfbf00;stroke:#000000;stroke-width:0.5;" x="530.68875" xlink:href="#m55fa9e03f3" y="75.9378125"/>
      <use style="fill:#bfbf00;stroke:#000000;stroke-width:0.5;" x="550.28875" xlink:href="#m55fa9e03f3" y="75.9378125"/>
     </g>
    </g>
    <g id="text_16">
     <!-- Channel 3 -->
     <defs>
      <path d="
M64.4062 67.2812
L64.4062 56.8906
Q59.4219 61.5312 53.7812 63.8125
Q48.1406 66.1094 41.7969 66.1094
Q29.2969 66.1094 22.6562 58.4688
Q16.0156 50.8281 16.0156 36.375
Q16.0156 21.9688 22.6562 14.3281
Q29.2969 6.6875 41.7969 6.6875
Q48.1406 6.6875 53.7812 8.98438
Q59.4219 11.2812 64.4062 15.9219
L64.4062 5.60938
Q59.2344 2.09375 53.4375 0.328125
Q47.6562 -1.42188 41.2188 -1.42188
Q24.6562 -1.42188 15.125 8.70312
Q5.60938 18.8438 5.60938 36.375
Q5.60938 53.9531 15.125 64.0781
Q24.6562 74.2188 41.2188 74.2188
Q47.75 74.2188 53.5312 72.4844
Q59.3281 70.75 64.4062 67.2812" id="BitstreamVeraSans-Roman-43"/>
      <path d="
M54.8906 33.0156
L54.8906 0
L45.9062 0
L45.9062 32.7188
Q45.9062 40.4844 42.875 44.3281
Q39.8438 48.1875 33.7969 48.1875
Q26.5156 48.1875 22.3125 43.5469
Q18.1094 38.9219 18.1094 30.9062
L18.1094 0
L9.07812 0
L9.07812 75.9844
L18.1094 75.9844
L18.1094 46.1875
Q21.3438 51.125 25.7031 53.5625
Q30.0781 56 35.7969 56
Q45.2188 56 50.0469 50.1719
Q54.8906 44.3438 54.8906 33.0156" id="BitstreamVeraSans-Roman-68"/>
     </defs>
     <g transform="translate(565.68875 80.8378125)scale(0.14 -0.14)">
      <use xlink:href="#BitstreamVeraSans-Roman-43"/>
      <use x="69.82421875" xlink:href="#BitstreamVeraSans-Roman-68"/>
      <use x="133.203125" xlink:href="#BitstreamVeraSans-Roman-61"/>
      <use x="194.482421875" xlink:href="#BitstreamVeraSans-Roman-6e"/>
      <use x="257.861328125" xlink:href="#BitstreamVeraSans-Roman-6e"/>
      <use x="321.240234375" xlink:href="#BitstreamVeraSans-Roman-65"/>
      <use x="382.763671875" xlink:href="#BitstreamVeraSans-Roman-6c"/>
      <use x="410.546875" xlink:href="#BitstreamVeraSans-Roman-20"/>
      <use x="442.333984375" xlink:href="#BitstreamVeraSans-Roman-33"/>
     </g>
    </g>
    <g id="line2d_30">
     <path d="
M530.689 96.4872
L550.289 96.4872" style="fill:none;stroke:#bf00bf;stroke-dasharray:6.000000,6.000000;stroke-dashoffset:0.0;stroke-width:3;"/>
    </g>
    <g id="line2d_31">
     <g>
      <use style="fill:#bf00bf;stroke:#000000;stroke-width:0.5;" x="530.68875" xlink:href="#m340e750fc5" y="96.4871875"/>
      <use style="fill:#bf00bf;stroke:#000000;stroke-width:0.5;" x="550.28875" xlink:href="#m340e750fc5" y="96.4871875"/>
     </g>
    </g>
    <g id="text_17">
     <!-- Channel 2 -->
     <g transform="translate(565.68875 101.3871875)scale(0.14 -0.14)">
      <use xlink:href="#BitstreamVeraSans-Roman-43"/>
      <use x="69.82421875" xlink:href="#BitstreamVeraSans-Roman-68"/>
      <use x="133.203125" xlink:href="#BitstreamVeraSans-Roman-61"/>
      <use x="194.482421875" xlink:href="#BitstreamVeraSans-Roman-6e"/>
      <use x="257.861328125" xlink:href="#BitstreamVeraSans-Roman-6e"/>
      <use x="321.240234375" xlink:href="#BitstreamVeraSans-Roman-65"/>
      <use x="382.763671875" xlink:href="#BitstreamVeraSans-Roman-6c"/>
      <use x="410.546875" xlink:href="#BitstreamVeraSans-Roman-20"/>
      <use x="442.333984375" xlink:href="#BitstreamVeraSans-Roman-32"/>
     </g>
    </g>
    <g id="line2d_32">
     <path d="
M530.689 117.037
L550.289 117.037" style="fill:none;stroke:#0000ff;stroke-dasharray:6.000000,6.000000;stroke-dashoffset:0.0;stroke-width:3;"/>
    </g>
    <g id="line2d_33">
     <g>
      <use style="fill:#0000ff;stroke:#000000;stroke-width:0.5;" x="530.68875" xlink:href="#mf1e9a9e4ae" y="117.0365625"/>
      <use style="fill:#0000ff;stroke:#000000;stroke-width:0.5;" x="550.28875" xlink:href="#mf1e9a9e4ae" y="117.0365625"/>
     </g>
    </g>
    <g id="text_18">
     <!-- Channel 1 -->
     <g transform="translate(565.68875 121.9365625)scale(0.14 -0.14)">
      <use xlink:href="#BitstreamVeraSans-Roman-43"/>
      <use x="69.82421875" xlink:href="#BitstreamVeraSans-Roman-68"/>
      <use x="133.203125" xlink:href="#BitstreamVeraSans-Roman-61"/>
      <use x="194.482421875" xlink:href="#BitstreamVeraSans-Roman-6e"/>
      <use x="257.861328125" xlink:href="#BitstreamVeraSans-Roman-6e"/>
      <use x="321.240234375" xlink:href="#BitstreamVeraSans-Roman-65"/>
      <use x="382.763671875" xlink:href="#BitstreamVeraSans-Roman-6c"/>
      <use x="410.546875" xlink:href="#BitstreamVeraSans-Roman-20"/>
      <use x="442.333984375" xlink:href="#BitstreamVeraSans-Roman-31"/>
     </g>
    </g>
   </g>
  </g>
 </g>
 <defs>
  <clipPath id="p337f83845a">
   <rect height="446.4" width="558.0" x="90.0" y="57.6"/>
  </clipPath>
 </defs>
</svg>
